<?xml version="1.0" encoding="UTF-8"?><svg xmlns="http://www.w3.org/2000/svg" xmlns:xlink="http://www.w3.org/1999/xlink" height="1556.5" preserveAspectRatio="xMidYMid meet" version="1.0" viewBox="181.5 299.8 2603.3 1556.5" width="2603.3" zoomAndPan="magnify"><g id="change1_1"><path d="m2151.9-1147.8c-29.011 0-52.366 23.355-52.366 52.366v1451.8c0 29.011 23.355 52.368 52.366 52.368h580.58c29.011 0 52.366-23.357 52.366-52.368v-1451.8c0-29.011-23.355-52.366-52.366-52.366h-580.58zm-1927.9 5.311c-23.545 0-42.5 18.955-42.5 42.5v1120.9c0 23.545 18.955 42.5 42.5 42.5h730.88l-17.815 223.13h-261.24c-14.716 0-26.561 6.7697-26.561 15.179v33.393c0 8.409 11.845 15.179 26.561 15.179h802.19c14.716 0 26.563-6.7697 26.563-15.179v-33.393c0-8.409-11.848-15.179-26.563-15.179h-250.62l-17.815-223.13h730.88c23.545 0 42.5-18.955 42.5-42.5v-1120.9c0-23.545-18.955-42.5-42.5-42.5h-1716.5zm2.2942 58.439h1711.9v1089.1h-1711.9v-1089.1zm2016.6 100.94h372.2c5.7967 0 10.461 4.6669 10.461 10.464v5.6362c0 5.7966-4.6647 10.464-10.461 10.464h-372.2c-5.7967 0-10.463-4.6669-10.463-10.464v-5.6362c0-5.7966 4.6667-10.464 10.463-10.464zm0 64.898h372.2c5.7967 0 10.461 4.6669 10.461 10.463v5.6363c0 5.7966-4.6647 10.464-10.461 10.464h-372.2c-5.7967 0-10.463-4.6669-10.463-10.464v-5.6363c0-5.7965 4.6667-10.463 10.463-10.463zm324.22 126.35a47.812 47.812 0 0 1 47.813 47.813 47.812 47.812 0 0 1 -47.813 47.811 47.812 47.812 0 0 1 -47.813 -47.811 47.812 47.812 0 0 1 47.813 -47.813zm-334.85 284.22h372.2c5.7965 0 10.463 4.6669 10.463 10.463v5.6363c0 5.7966-4.6669 10.461-10.463 10.461h-372.2c-5.7965 0-10.463-4.6648-10.463-10.461v-5.6363c0-5.7966 4.6669-10.463 10.463-10.463zm0 79.318h372.2c5.7965 0 10.463 4.6669 10.463 10.463v5.6363c0 5.7966-4.6669 10.463-10.463 10.463h-372.2c-5.7965 0-10.463-4.6669-10.463-10.463v-5.6363c0-5.7966 4.6669-10.463 10.463-10.463zm0 79.32h372.2c5.7965 0 10.463 4.6669 10.463 10.463v5.6363c0 5.7966-4.6669 10.463-10.463 10.463h-372.2c-5.7965 0-10.463-4.6668-10.463-10.463v-5.6363c0-5.7966 4.6669-10.463 10.463-10.463zm0 79.32h372.2c5.7965 0 10.463 4.667 10.463 10.464v5.6362c0 5.7965-4.6669 10.461-10.463 10.461h-372.2c-5.7965 0-10.463-4.6648-10.463-10.461v-5.6362c0-5.7965 4.6669-10.464 10.463-10.464zm308.12 269.39h101.26c17.569 0 31.714 14.142 31.714 31.711v143.76c0 17.569-14.144 31.711-31.714 31.711h-101.26c-17.569 0-31.714-14.142-31.714-31.711v-143.76c0-17.569 14.144-31.711 31.714-31.711z" fill="#1a1a1a" transform="translate(0 1447.6)"/></g></svg>