<?xml version="1.0" encoding="UTF-8"?><svg xmlns="http://www.w3.org/2000/svg" xmlns:xlink="http://www.w3.org/1999/xlink" height="508.6" preserveAspectRatio="xMidYMid meet" version="1.0" viewBox="155.2 245.7 689.6 508.6" width="689.6" zoomAndPan="magnify"><defs><clipPath id="a"><path d="M 194 245 L 845 245 L 845 632 L 194 632 Z M 194 245"/></clipPath><clipPath id="b"><path d="M 605.949219 266.6875 C 592.804688 266.6875 580.621094 269.558594 571.65625 274.769531 L 226.699219 475.238281 C 219.648438 479.332031 215.632812 484.351562 215.671875 489.007812 C 215.699219 493.765625 219.800781 498.832031 226.929688 502.949219 L 399.035156 602.3125 C 408.0625 607.523438 420.28125 610.394531 433.445312 610.394531 C 433.472656 610.394531 433.503906 610.394531 433.53125 610.394531 C 446.445312 610.394531 458.898438 607.453125 467.722656 602.328125 L 812.679688 401.859375 C 819.730469 397.761719 823.757812 392.726562 823.730469 388.039062 C 823.691406 383.339844 819.578125 378.265625 812.445312 374.148438 L 640.34375 274.785156 C 631.324219 269.578125 619.109375 266.703125 605.949219 266.6875 Z M 472.996094 611.40625 L 473.007812 611.40625 Z M 433.546875 631.394531 C 433.507812 631.394531 433.472656 631.394531 433.433594 631.394531 C 416.652344 631.394531 400.703125 627.523438 388.535156 620.5 L 216.429688 521.132812 C 202.472656 513.074219 194.742188 501.71875 194.671875 489.160156 C 194.5625 476.59375 202.1875 465.191406 216.148438 457.078125 L 561.105469 256.613281 C 573.226562 249.566406 589.15625 245.6875 605.957031 245.6875 C 622.753906 245.707031 638.6875 249.578125 650.84375 256.597656 L 822.945312 355.964844 C 836.886719 364.007812 844.621094 375.347656 844.730469 387.890625 C 844.800781 400.519531 837.167969 411.917969 823.230469 420.015625 L 478.273438 620.484375 C 466.164062 627.519531 450.285156 631.394531 433.546875 631.394531 Z M 433.546875 631.394531"/></clipPath><clipPath id="c"><path d="M 605.949219 266.6875 C 592.804688 266.6875 580.621094 269.558594 571.65625 274.769531 L 226.699219 475.238281 C 219.648438 479.332031 215.632812 484.351562 215.671875 489.007812 C 215.699219 493.765625 219.800781 498.832031 226.929688 502.949219 L 399.035156 602.3125 C 408.0625 607.523438 420.28125 610.394531 433.445312 610.394531 C 433.472656 610.394531 433.503906 610.394531 433.53125 610.394531 C 446.445312 610.394531 458.898438 607.453125 467.722656 602.328125 L 812.679688 401.859375 C 819.730469 397.761719 823.757812 392.726562 823.730469 388.039062 C 823.691406 383.339844 819.578125 378.265625 812.445312 374.148438 L 640.34375 274.785156 C 631.324219 269.578125 619.109375 266.703125 605.949219 266.6875 Z M 472.996094 611.40625 L 473.007812 611.40625 Z M 433.546875 631.394531 C 433.507812 631.394531 433.472656 631.394531 433.433594 631.394531 C 416.652344 631.394531 400.703125 627.523438 388.535156 620.5 L 216.429688 521.132812 C 202.472656 513.074219 194.742188 501.71875 194.671875 489.160156 C 194.5625 476.59375 202.1875 465.191406 216.148438 457.078125 L 561.105469 256.613281 C 573.226562 249.566406 589.15625 245.6875 605.957031 245.6875 C 622.753906 245.707031 638.6875 249.578125 650.84375 256.597656 L 822.945312 355.964844 C 836.886719 364.007812 844.621094 375.347656 844.730469 387.890625 C 844.800781 400.519531 837.167969 411.917969 823.230469 420.015625 L 478.273438 620.484375 C 466.164062 627.519531 450.285156 631.394531 433.546875 631.394531"/></clipPath><clipPath id="e"><path d="M 155 327 L 806 327 L 806 714 L 155 714 Z M 155 327"/></clipPath><clipPath id="f"><path d="M 566.542969 348.691406 C 553.402344 348.691406 541.21875 351.558594 532.253906 356.769531 L 187.296875 557.238281 C 180.246094 561.335938 176.226562 566.355469 176.269531 571.011719 C 176.296875 575.765625 180.398438 580.835938 187.527344 584.949219 L 359.632812 684.316406 C 368.65625 689.523438 380.878906 692.394531 394.042969 692.394531 C 394.070312 692.394531 394.101562 692.394531 394.128906 692.394531 C 407.042969 692.394531 419.496094 689.457031 428.316406 684.328125 L 773.277344 483.859375 C 780.324219 479.765625 784.355469 474.726562 784.328125 470.042969 C 784.285156 465.34375 780.175781 460.265625 773.042969 456.152344 L 600.9375 356.785156 C 591.921875 351.578125 579.707031 348.703125 566.542969 348.691406 Z M 394.144531 713.394531 C 394.105469 713.394531 394.066406 713.394531 394.03125 713.394531 C 377.25 713.394531 361.300781 709.527344 349.132812 702.5 L 177.027344 603.136719 C 163.066406 595.074219 155.339844 583.722656 155.269531 571.160156 C 155.160156 558.597656 162.785156 547.191406 176.742188 539.082031 L 521.699219 338.613281 C 533.824219 331.570312 549.753906 327.691406 566.554688 327.691406 C 583.347656 327.707031 599.285156 331.582031 611.4375 338.597656 L 783.542969 437.964844 C 797.480469 446.011719 805.21875 457.347656 805.328125 469.890625 C 805.398438 482.523438 797.761719 493.921875 783.828125 502.019531 L 438.867188 702.484375 L 438.871094 702.484375 C 426.761719 709.523438 410.882812 713.394531 394.144531 713.394531 Z M 394.144531 713.394531"/></clipPath><clipPath id="g"><path d="M 566.542969 348.691406 C 553.402344 348.691406 541.21875 351.558594 532.253906 356.769531 L 187.296875 557.238281 C 180.246094 561.335938 176.226562 566.355469 176.269531 571.011719 C 176.296875 575.765625 180.398438 580.835938 187.527344 584.949219 L 359.632812 684.316406 C 368.65625 689.523438 380.878906 692.394531 394.042969 692.394531 C 394.070312 692.394531 394.101562 692.394531 394.128906 692.394531 C 407.042969 692.394531 419.496094 689.457031 428.316406 684.328125 L 773.277344 483.859375 C 780.324219 479.765625 784.355469 474.726562 784.328125 470.042969 C 784.285156 465.34375 780.175781 460.265625 773.042969 456.152344 L 600.9375 356.785156 C 591.921875 351.578125 579.707031 348.703125 566.542969 348.691406 Z M 394.144531 713.394531 C 394.105469 713.394531 394.066406 713.394531 394.03125 713.394531 C 377.25 713.394531 361.300781 709.527344 349.132812 702.5 L 177.027344 603.136719 C 163.066406 595.074219 155.339844 583.722656 155.269531 571.160156 C 155.160156 558.597656 162.785156 547.191406 176.742188 539.082031 L 521.699219 338.613281 C 533.824219 331.570312 549.753906 327.691406 566.554688 327.691406 C 583.347656 327.707031 599.285156 331.582031 611.4375 338.597656 L 783.542969 437.964844 C 797.480469 446.011719 805.21875 457.347656 805.328125 469.890625 C 805.398438 482.523438 797.761719 493.921875 783.828125 502.019531 L 438.867188 702.484375 L 438.871094 702.484375 C 426.761719 709.523438 410.882812 713.394531 394.144531 713.394531"/></clipPath><clipPath id="i"><path d="M 155 327 L 806 327 L 806 755 L 155 755 Z M 155 327"/></clipPath><clipPath id="j"><path d="M 176.269531 570.984375 C 176.269531 570.992188 176.269531 571.003906 176.269531 571.011719 C 176.269531 571.003906 176.269531 570.996094 176.269531 570.984375 Z M 176.269531 612.859375 C 176.378906 613.1875 176.472656 613.519531 176.546875 613.863281 C 177.5 618.066406 181.398438 622.328125 187.527344 625.867188 L 359.632812 725.230469 C 368.65625 730.441406 380.878906 733.3125 394.039062 733.3125 C 394.070312 733.3125 394.101562 733.3125 394.128906 733.3125 C 407.042969 733.3125 419.492188 730.375 428.316406 725.246094 L 773.277344 524.777344 C 780.324219 520.679688 784.355469 515.644531 784.328125 510.960938 L 784.328125 475.621094 C 784.019531 474.289062 783.96875 472.898438 784.199219 471.519531 C 784.285156 470.984375 784.328125 470.488281 784.328125 470.042969 C 784.285156 465.34375 780.175781 460.265625 773.042969 456.152344 L 600.9375 356.785156 C 591.921875 351.578125 579.707031 348.703125 566.542969 348.691406 C 553.402344 348.691406 541.21875 351.558594 532.253906 356.769531 L 187.296875 557.238281 C 180.328125 561.285156 176.320312 566.238281 176.269531 570.847656 L 176.289062 571.027344 C 176.316406 571.277344 176.347656 571.527344 176.367188 571.78125 C 176.453125 572.6875 176.417969 573.59375 176.269531 574.476562 Z M 394.144531 754.3125 C 377.304688 754.351562 361.328125 750.460938 349.132812 743.417969 L 177.027344 644.054688 C 164.9375 637.074219 159.515625 628.804688 157.132812 622.15625 C 155.957031 620.460938 155.269531 618.402344 155.269531 616.183594 L 155.269531 572.742188 C 155.269531 572.488281 155.277344 572.234375 155.296875 571.988281 C 155.28125 571.726562 155.269531 571.449219 155.269531 571.15625 C 155.160156 558.597656 162.785156 547.195312 176.742188 539.082031 L 521.703125 338.613281 C 533.824219 331.570312 549.753906 327.691406 566.554688 327.691406 C 583.347656 327.707031 599.285156 331.582031 611.4375 338.597656 L 783.542969 437.964844 C 797.480469 446.011719 805.21875 457.347656 805.328125 469.890625 C 805.332031 470.601562 805.308594 471.316406 805.257812 472.039062 C 805.304688 472.4375 805.328125 472.839844 805.328125 473.242188 L 805.328125 510.898438 C 805.398438 523.4375 797.761719 534.835938 783.828125 542.933594 L 438.867188 743.402344 C 426.761719 750.4375 410.882812 754.3125 394.144531 754.3125 Z M 394.144531 754.3125"/></clipPath><clipPath id="k"><path d="M 176.269531 570.984375 C 176.269531 570.992188 176.269531 571.003906 176.269531 571.011719 C 176.269531 571.003906 176.269531 570.996094 176.269531 570.984375 Z M 176.269531 612.859375 C 176.378906 613.1875 176.472656 613.519531 176.546875 613.863281 C 177.5 618.066406 181.398438 622.328125 187.527344 625.867188 L 359.632812 725.230469 C 368.65625 730.441406 380.878906 733.3125 394.039062 733.3125 C 394.070312 733.3125 394.101562 733.3125 394.128906 733.3125 C 407.042969 733.3125 419.492188 730.375 428.316406 725.246094 L 773.277344 524.777344 C 780.324219 520.679688 784.355469 515.644531 784.328125 510.960938 L 784.328125 475.621094 C 784.019531 474.289062 783.96875 472.898438 784.199219 471.519531 C 784.285156 470.984375 784.328125 470.488281 784.328125 470.042969 C 784.285156 465.34375 780.175781 460.265625 773.042969 456.152344 L 600.9375 356.785156 C 591.921875 351.578125 579.707031 348.703125 566.542969 348.691406 C 553.402344 348.691406 541.21875 351.558594 532.253906 356.769531 L 187.296875 557.238281 C 180.328125 561.285156 176.320312 566.238281 176.269531 570.847656 L 176.289062 571.027344 C 176.316406 571.277344 176.347656 571.527344 176.367188 571.78125 C 176.453125 572.6875 176.417969 573.59375 176.269531 574.476562 Z M 394.144531 754.3125 C 377.304688 754.351562 361.328125 750.460938 349.132812 743.417969 L 177.027344 644.054688 C 164.9375 637.074219 159.515625 628.804688 157.132812 622.15625 C 155.957031 620.460938 155.269531 618.402344 155.269531 616.183594 L 155.269531 572.742188 C 155.269531 572.488281 155.277344 572.234375 155.296875 571.988281 C 155.28125 571.726562 155.269531 571.449219 155.269531 571.15625 C 155.160156 558.597656 162.785156 547.195312 176.742188 539.082031 L 521.703125 338.613281 C 533.824219 331.570312 549.753906 327.691406 566.554688 327.691406 C 583.347656 327.707031 599.285156 331.582031 611.4375 338.597656 L 783.542969 437.964844 C 797.480469 446.011719 805.21875 457.347656 805.328125 469.890625 C 805.332031 470.601562 805.308594 471.316406 805.257812 472.039062 C 805.304688 472.4375 805.328125 472.839844 805.328125 473.242188 L 805.328125 510.898438 C 805.398438 523.4375 797.761719 534.835938 783.828125 542.933594 L 438.867188 743.402344 C 426.761719 750.4375 410.882812 754.3125 394.144531 754.3125"/></clipPath><clipPath id="m"><path d="M 253 589 L 355 589 L 355 657 L 253 657 Z M 253 589"/></clipPath><clipPath id="n"><path d="M 343.613281 656.777344 C 341.832031 656.777344 340.027344 656.320312 338.375 655.367188 L 258.433594 609.214844 C 253.410156 606.316406 251.691406 599.894531 254.589844 594.871094 C 257.488281 589.847656 263.910156 588.128906 268.933594 591.027344 L 348.875 637.179688 C 353.894531 640.078125 355.617188 646.503906 352.71875 651.523438 C 350.773438 654.890625 347.242188 656.777344 343.613281 656.777344 Z M 343.613281 656.777344"/></clipPath><clipPath id="o"><path d="M 343.613281 656.777344 C 341.832031 656.777344 340.027344 656.320312 338.375 655.367188 L 258.433594 609.214844 C 253.410156 606.316406 251.691406 599.894531 254.589844 594.871094 C 257.488281 589.847656 263.910156 588.128906 268.933594 591.027344 L 348.875 637.179688 C 353.894531 640.078125 355.617188 646.503906 352.71875 651.523438 C 350.773438 654.890625 347.242188 656.777344 343.613281 656.777344"/></clipPath><clipPath id="q"><path d="M 611 389 L 700 389 L 700 450 L 611 450 Z M 611 389"/></clipPath><clipPath id="r"><path d="M 684.664062 449.050781 C 681.816406 449.050781 678.960938 448.363281 676.507812 446.992188 C 676.46875 446.96875 676.425781 446.945312 676.386719 446.921875 L 618.441406 413.46875 C 618.402344 413.445312 618.359375 413.421875 618.320312 413.398438 C 614.3125 411.011719 611.933594 406.953125 611.953125 402.546875 C 611.980469 398.148438 614.398438 394.121094 618.421875 391.785156 C 623.367188 388.910156 630.027344 388.902344 634.988281 391.769531 L 692.933594 425.222656 C 697.003906 427.570312 699.4375 431.621094 699.441406 436.054688 C 699.449219 440.484375 697.03125 444.535156 692.980469 446.894531 C 690.503906 448.328125 687.589844 449.050781 684.664062 449.050781 Z M 684.664062 449.050781"/></clipPath><clipPath id="s"><path d="M 684.664062 449.050781 C 681.816406 449.050781 678.960938 448.363281 676.507812 446.992188 C 676.46875 446.96875 676.425781 446.945312 676.386719 446.921875 L 618.441406 413.46875 C 618.402344 413.445312 618.359375 413.421875 618.320312 413.398438 C 614.3125 411.011719 611.933594 406.953125 611.953125 402.546875 C 611.980469 398.148438 614.398438 394.121094 618.421875 391.785156 C 623.367188 388.910156 630.027344 388.902344 634.988281 391.769531 L 692.933594 425.222656 C 697.003906 427.570312 699.4375 431.621094 699.441406 436.054688 C 699.449219 440.484375 697.03125 444.535156 692.980469 446.894531 C 690.503906 448.328125 687.589844 449.050781 684.664062 449.050781"/></clipPath><linearGradient gradientTransform="rotate(90 132.592 387.109) scale(490.965)" gradientUnits="userSpaceOnUse" id="d" x1="-.018" x2=".768" xlink:actuate="onLoad" xlink:show="other" xlink:type="simple" xmlns:xlink="http://www.w3.org/1999/xlink" y1="0" y2="0"><stop offset="0" stop-color="#69ceef"/><stop offset=".016" stop-color="#69ceef"/><stop offset=".023" stop-color="#69ceef"/><stop offset=".027" stop-color="#68cef0"/><stop offset=".031" stop-color="#68cef0"/><stop offset=".035" stop-color="#67cef1"/><stop offset=".039" stop-color="#67cef1"/><stop offset=".043" stop-color="#66cef1"/><stop offset=".047" stop-color="#65cdf2"/><stop offset=".051" stop-color="#65cdf2"/><stop offset=".055" stop-color="#64cdf2"/><stop offset=".059" stop-color="#64cdf3"/><stop offset=".063" stop-color="#63cdf3"/><stop offset=".066" stop-color="#63cdf3"/><stop offset=".07" stop-color="#62cdf4"/><stop offset=".074" stop-color="#62ccf4"/><stop offset=".078" stop-color="#62ccf5"/><stop offset=".086" stop-color="#61ccf5"/><stop offset=".094" stop-color="#61ccf5"/><stop offset=".109" stop-color="#60ccf5"/><stop offset=".125" stop-color="#5fccf5"/><stop offset=".129" stop-color="#5fcbf4"/><stop offset=".133" stop-color="#60caf4"/><stop offset=".137" stop-color="#60c9f3"/><stop offset=".141" stop-color="#60c8f3"/><stop offset=".145" stop-color="#61c8f3"/><stop offset=".148" stop-color="#61c7f2"/><stop offset=".152" stop-color="#61c6f2"/><stop offset=".156" stop-color="#61c5f1"/><stop offset=".16" stop-color="#62c4f0"/><stop offset=".164" stop-color="#62c3f0"/><stop offset=".168" stop-color="#62c2ef"/><stop offset=".172" stop-color="#62c1ef"/><stop offset=".176" stop-color="#62c0ee"/><stop offset=".18" stop-color="#62bfee"/><stop offset=".184" stop-color="#62bfed"/><stop offset=".188" stop-color="#62beed"/><stop offset=".191" stop-color="#62bdec"/><stop offset=".195" stop-color="#61bcec"/><stop offset=".199" stop-color="#61bbeb"/><stop offset=".203" stop-color="#61baeb"/><stop offset=".207" stop-color="#61b9ea"/><stop offset=".211" stop-color="#61b8ea"/><stop offset=".215" stop-color="#62b8e9"/><stop offset=".219" stop-color="#62b7e9"/><stop offset=".223" stop-color="#62b6e8"/><stop offset=".227" stop-color="#62b5e8"/><stop offset=".23" stop-color="#61b4e7"/><stop offset=".234" stop-color="#61b3e7"/><stop offset=".238" stop-color="#61b2e6"/><stop offset=".242" stop-color="#61b1e5"/><stop offset=".246" stop-color="#61b0e5"/><stop offset=".25" stop-color="#60afe4"/><stop offset=".254" stop-color="#60aee4"/><stop offset=".258" stop-color="#60ade3"/><stop offset=".262" stop-color="#60ace3"/><stop offset=".266" stop-color="#60abe2"/><stop offset=".27" stop-color="#60aae2"/><stop offset=".273" stop-color="#60a9e1"/><stop offset=".277" stop-color="#61a8e1"/><stop offset=".281" stop-color="#61a7e0"/><stop offset=".285" stop-color="#61a6df"/><stop offset=".289" stop-color="#61a6df"/><stop offset=".293" stop-color="#61a5df"/><stop offset=".297" stop-color="#61a4de"/><stop offset=".301" stop-color="#61a3de"/><stop offset=".305" stop-color="#61a2dd"/><stop offset=".309" stop-color="#61a2dd"/><stop offset=".313" stop-color="#61a1dc"/><stop offset=".316" stop-color="#61a0dc"/><stop offset=".32" stop-color="#619fdb"/><stop offset=".324" stop-color="#619eda"/><stop offset=".328" stop-color="#619dda"/><stop offset=".332" stop-color="#619cd9"/><stop offset=".336" stop-color="#619bd9"/><stop offset=".34" stop-color="#619bd9"/><stop offset=".344" stop-color="#619ad8"/><stop offset=".348" stop-color="#6199d8"/><stop offset=".352" stop-color="#6198d7"/><stop offset=".355" stop-color="#6097d7"/><stop offset=".359" stop-color="#6096d6"/><stop offset=".363" stop-color="#6096d6"/><stop offset=".367" stop-color="#6095d5"/><stop offset=".371" stop-color="#6094d5"/><stop offset=".375" stop-color="#6093d4"/><stop offset=".379" stop-color="#6092d4"/><stop offset=".383" stop-color="#6091d3"/><stop offset=".387" stop-color="#6090d3"/><stop offset=".391" stop-color="#608fd2"/><stop offset=".395" stop-color="#5f8fd2"/><stop offset=".398" stop-color="#5f8ed1"/><stop offset=".402" stop-color="#5f8dd1"/><stop offset=".406" stop-color="#5f8cd0"/><stop offset=".41" stop-color="#5f8bd0"/><stop offset=".414" stop-color="#5f8bcf"/><stop offset=".418" stop-color="#5f8acf"/><stop offset=".422" stop-color="#5e89ce"/><stop offset=".426" stop-color="#5e88ce"/><stop offset=".43" stop-color="#5e87cd"/><stop offset=".434" stop-color="#5f86cd"/><stop offset=".438" stop-color="#5f85cc"/><stop offset=".441" stop-color="#5f85cc"/><stop offset=".445" stop-color="#5f84cb"/><stop offset=".449" stop-color="#5f83cb"/><stop offset=".453" stop-color="#5f82ca"/><stop offset=".457" stop-color="#5e82ca"/><stop offset=".461" stop-color="#5e81ca"/><stop offset=".465" stop-color="#5e80c9"/><stop offset=".469" stop-color="#5e80c9"/><stop offset=".473" stop-color="#5d7fc8"/><stop offset=".477" stop-color="#5d7ec8"/><stop offset=".48" stop-color="#5d7dc7"/><stop offset=".484" stop-color="#5d7cc7"/><stop offset=".488" stop-color="#5d7cc7"/><stop offset=".492" stop-color="#5c7bc6"/><stop offset=".496" stop-color="#5c7ac6"/><stop offset=".5" stop-color="#5c7ac5"/><stop offset=".504" stop-color="#5c79c5"/><stop offset=".508" stop-color="#5c78c5"/><stop offset=".512" stop-color="#5c78c4"/><stop offset=".516" stop-color="#5c77c4"/><stop offset=".52" stop-color="#5b76c3"/><stop offset=".523" stop-color="#5b75c3"/><stop offset=".527" stop-color="#5b75c2"/><stop offset=".531" stop-color="#5b74c2"/><stop offset=".535" stop-color="#5b73c1"/><stop offset=".539" stop-color="#5b72c1"/><stop offset=".543" stop-color="#5b71c0"/><stop offset=".547" stop-color="#5b71c0"/><stop offset=".551" stop-color="#5b70c0"/><stop offset=".555" stop-color="#5b6fbf"/><stop offset=".559" stop-color="#5b6fbf"/><stop offset=".563" stop-color="#5b6ebe"/><stop offset=".566" stop-color="#5a6ebe"/><stop offset=".57" stop-color="#5a6dbe"/><stop offset=".574" stop-color="#5a6cbd"/><stop offset=".578" stop-color="#5a6cbd"/><stop offset=".582" stop-color="#5a6bbd"/><stop offset=".586" stop-color="#5a6abc"/><stop offset=".59" stop-color="#5a6abc"/><stop offset=".594" stop-color="#5a69bb"/><stop offset=".598" stop-color="#5a69bb"/><stop offset=".602" stop-color="#5a68bb"/><stop offset=".605" stop-color="#5b67ba"/><stop offset=".609" stop-color="#5b67ba"/><stop offset=".613" stop-color="#5b66ba"/><stop offset=".617" stop-color="#5b65b9"/><stop offset=".621" stop-color="#5b65b9"/><stop offset=".625" stop-color="#5b64b8"/><stop offset=".629" stop-color="#5b64b8"/><stop offset=".633" stop-color="#5b63b8"/><stop offset=".637" stop-color="#5b63b7"/><stop offset=".641" stop-color="#5b62b7"/><stop offset=".645" stop-color="#5b62b7"/><stop offset=".648" stop-color="#5c61b7"/><stop offset=".652" stop-color="#5c61b6"/><stop offset=".656" stop-color="#5c60b6"/><stop offset=".66" stop-color="#5c60b6"/><stop offset=".664" stop-color="#5c60b6"/><stop offset=".668" stop-color="#5c5fb5"/><stop offset=".672" stop-color="#5c5fb5"/><stop offset=".676" stop-color="#5c5fb5"/><stop offset=".68" stop-color="#5c5eb5"/><stop offset=".684" stop-color="#5d5eb4"/><stop offset=".688" stop-color="#5d5db4"/><stop offset=".691" stop-color="#5d5db4"/><stop offset=".695" stop-color="#5d5db4"/><stop offset=".699" stop-color="#5d5cb4"/><stop offset=".703" stop-color="#5d5cb3"/><stop offset=".707" stop-color="#5d5cb3"/><stop offset=".711" stop-color="#5d5bb3"/><stop offset=".715" stop-color="#5e5bb3"/><stop offset=".719" stop-color="#5e5ab2"/><stop offset=".723" stop-color="#5e5ab2"/><stop offset=".727" stop-color="#5e5ab2"/><stop offset=".73" stop-color="#5f59b2"/><stop offset=".734" stop-color="#5f59b2"/><stop offset=".738" stop-color="#5f59b1"/><stop offset=".742" stop-color="#5f58b1"/><stop offset=".746" stop-color="#5f58b1"/><stop offset=".75" stop-color="#6057b1"/><stop offset=".758" stop-color="#6057b0"/><stop offset=".766" stop-color="#6057b0"/><stop offset=".773" stop-color="#6156b0"/><stop offset=".781" stop-color="#6156b0"/><stop offset=".789" stop-color="#6155af"/><stop offset=".793" stop-color="#6255af"/><stop offset=".797" stop-color="#6254af"/><stop offset=".801" stop-color="#6254ae"/><stop offset=".805" stop-color="#6253ae"/><stop offset=".809" stop-color="#6353ae"/><stop offset=".813" stop-color="#6353ae"/><stop offset=".82" stop-color="#6352ae"/><stop offset=".828" stop-color="#6352ad"/><stop offset=".836" stop-color="#6451ad"/><stop offset=".844" stop-color="#6451ad"/><stop offset=".852" stop-color="#6550ac"/><stop offset=".859" stop-color="#6550ac"/><stop offset=".867" stop-color="#654fac"/><stop offset=".875" stop-color="#664fac"/><stop offset=".883" stop-color="#664eab"/><stop offset=".891" stop-color="#674eab"/><stop offset=".898" stop-color="#684eab"/><stop offset=".906" stop-color="#694dab"/><stop offset=".914" stop-color="#694daa"/><stop offset=".922" stop-color="#694caa"/><stop offset=".93" stop-color="#6a4caa"/><stop offset=".938" stop-color="#6a4baa"/><stop offset=".941" stop-color="#6b4ba9"/><stop offset=".945" stop-color="#6b4aa9"/><stop offset=".949" stop-color="#6c4aa9"/><stop offset=".953" stop-color="#6c4aa9"/><stop offset=".961" stop-color="#6d4aa9"/><stop offset=".969" stop-color="#6d49a9"/><stop offset=".984" stop-color="#6e49a8"/><stop offset=".992" stop-color="#6f48a8"/><stop offset=".996" stop-color="#6f48a8"/><stop offset="1" stop-color="#7048a8"/></linearGradient><linearGradient gradientTransform="rotate(90 112.89 367.408) scale(490.965)" gradientUnits="userSpaceOnUse" id="h" x1=".149" x2=".935" xlink:actuate="onLoad" xlink:show="other" xlink:type="simple" xmlns:xlink="http://www.w3.org/1999/xlink" y1="0" y2="0"><stop offset="0" stop-color="#61b8ea"/><stop offset=".004" stop-color="#62b7e9"/><stop offset=".008" stop-color="#62b6e8"/><stop offset=".012" stop-color="#62b5e8"/><stop offset=".016" stop-color="#62b4e7"/><stop offset=".02" stop-color="#61b3e7"/><stop offset=".023" stop-color="#61b2e6"/><stop offset=".027" stop-color="#61b1e6"/><stop offset=".031" stop-color="#61b0e5"/><stop offset=".035" stop-color="#60afe5"/><stop offset=".039" stop-color="#60aee4"/><stop offset=".043" stop-color="#60ade4"/><stop offset=".047" stop-color="#60ace3"/><stop offset=".051" stop-color="#60ace2"/><stop offset=".055" stop-color="#60abe2"/><stop offset=".059" stop-color="#60aae1"/><stop offset=".063" stop-color="#60a9e1"/><stop offset=".066" stop-color="#61a8e0"/><stop offset=".07" stop-color="#61a7e0"/><stop offset=".074" stop-color="#61a6df"/><stop offset=".078" stop-color="#61a5df"/><stop offset=".082" stop-color="#61a5de"/><stop offset=".086" stop-color="#61a4de"/><stop offset=".09" stop-color="#61a3dd"/><stop offset=".094" stop-color="#61a2dd"/><stop offset=".098" stop-color="#61a1dc"/><stop offset=".102" stop-color="#61a0dc"/><stop offset=".105" stop-color="#619fdb"/><stop offset=".109" stop-color="#619edb"/><stop offset=".113" stop-color="#619dda"/><stop offset=".117" stop-color="#619dda"/><stop offset=".121" stop-color="#619cd9"/><stop offset=".125" stop-color="#619bd9"/><stop offset=".129" stop-color="#619ad8"/><stop offset=".133" stop-color="#6199d8"/><stop offset=".137" stop-color="#6199d7"/><stop offset=".141" stop-color="#6098d7"/><stop offset=".145" stop-color="#6097d6"/><stop offset=".148" stop-color="#6096d6"/><stop offset=".152" stop-color="#6095d6"/><stop offset=".156" stop-color="#6094d5"/><stop offset=".16" stop-color="#6094d5"/><stop offset=".164" stop-color="#6093d4"/><stop offset=".168" stop-color="#6092d3"/><stop offset=".172" stop-color="#6091d3"/><stop offset=".176" stop-color="#6090d2"/><stop offset=".18" stop-color="#608fd2"/><stop offset=".184" stop-color="#5f8ed1"/><stop offset=".188" stop-color="#5f8dd1"/><stop offset=".191" stop-color="#5f8dd1"/><stop offset=".195" stop-color="#5f8cd0"/><stop offset=".199" stop-color="#5f8bd0"/><stop offset=".203" stop-color="#5f8acf"/><stop offset=".207" stop-color="#5e89cf"/><stop offset=".211" stop-color="#5e89ce"/><stop offset=".215" stop-color="#5e88ce"/><stop offset=".219" stop-color="#5e87cd"/><stop offset=".223" stop-color="#5f86cd"/><stop offset=".227" stop-color="#5f85cc"/><stop offset=".23" stop-color="#5f84cc"/><stop offset=".234" stop-color="#5f83cb"/><stop offset=".238" stop-color="#5f83cb"/><stop offset=".242" stop-color="#5f82ca"/><stop offset=".246" stop-color="#5e81ca"/><stop offset=".25" stop-color="#5e81c9"/><stop offset=".254" stop-color="#5e80c9"/><stop offset=".258" stop-color="#5e7fc9"/><stop offset=".262" stop-color="#5d7ec8"/><stop offset=".266" stop-color="#5d7ec8"/><stop offset=".27" stop-color="#5d7dc7"/><stop offset=".273" stop-color="#5d7cc7"/><stop offset=".277" stop-color="#5d7bc6"/><stop offset=".281" stop-color="#5c7bc6"/><stop offset=".285" stop-color="#5c7ac6"/><stop offset=".289" stop-color="#5c79c5"/><stop offset=".293" stop-color="#5c79c5"/><stop offset=".297" stop-color="#5c78c4"/><stop offset=".301" stop-color="#5c77c4"/><stop offset=".305" stop-color="#5c76c3"/><stop offset=".309" stop-color="#5b76c3"/><stop offset=".313" stop-color="#5b75c3"/><stop offset=".316" stop-color="#5b74c2"/><stop offset=".32" stop-color="#5b73c2"/><stop offset=".324" stop-color="#5b73c1"/><stop offset=".328" stop-color="#5b72c1"/><stop offset=".332" stop-color="#5b71c0"/><stop offset=".336" stop-color="#5b70c0"/><stop offset=".34" stop-color="#5b70bf"/><stop offset=".344" stop-color="#5b6fbf"/><stop offset=".348" stop-color="#5b6fbf"/><stop offset=".352" stop-color="#5a6ebe"/><stop offset=".355" stop-color="#5a6dbe"/><stop offset=".359" stop-color="#5a6dbe"/><stop offset=".363" stop-color="#5a6cbd"/><stop offset=".367" stop-color="#5a6bbd"/><stop offset=".371" stop-color="#5a6bbc"/><stop offset=".375" stop-color="#5a6abc"/><stop offset=".379" stop-color="#5a6abc"/><stop offset=".383" stop-color="#5a69bb"/><stop offset=".387" stop-color="#5a68bb"/><stop offset=".391" stop-color="#5a68bb"/><stop offset=".395" stop-color="#5b67ba"/><stop offset=".398" stop-color="#5b66ba"/><stop offset=".402" stop-color="#5b66b9"/><stop offset=".406" stop-color="#5b65b9"/><stop offset=".41" stop-color="#5b65b9"/><stop offset=".414" stop-color="#5b64b8"/><stop offset=".418" stop-color="#5b63b8"/><stop offset=".422" stop-color="#5b63b8"/><stop offset=".426" stop-color="#5b62b7"/><stop offset=".43" stop-color="#5b62b7"/><stop offset=".434" stop-color="#5b61b7"/><stop offset=".438" stop-color="#5c61b6"/><stop offset=".441" stop-color="#5c61b6"/><stop offset=".445" stop-color="#5c60b6"/><stop offset=".449" stop-color="#5c60b6"/><stop offset=".453" stop-color="#5c5fb6"/><stop offset=".457" stop-color="#5c5fb5"/><stop offset=".461" stop-color="#5c5fb5"/><stop offset=".465" stop-color="#5c5eb5"/><stop offset=".469" stop-color="#5d5eb5"/><stop offset=".473" stop-color="#5d5eb4"/><stop offset=".477" stop-color="#5d5db4"/><stop offset=".48" stop-color="#5d5db4"/><stop offset=".484" stop-color="#5d5db4"/><stop offset=".488" stop-color="#5d5cb3"/><stop offset=".492" stop-color="#5d5cb3"/><stop offset=".496" stop-color="#5d5bb3"/><stop offset=".5" stop-color="#5d5bb3"/><stop offset=".504" stop-color="#5e5bb3"/><stop offset=".508" stop-color="#5e5ab2"/><stop offset=".512" stop-color="#5e5ab2"/><stop offset=".516" stop-color="#5e5ab2"/><stop offset=".52" stop-color="#5f59b2"/><stop offset=".523" stop-color="#5f59b1"/><stop offset=".527" stop-color="#5f58b1"/><stop offset=".531" stop-color="#5f58b1"/><stop offset=".535" stop-color="#5f58b1"/><stop offset=".539" stop-color="#6057b1"/><stop offset=".547" stop-color="#6057b0"/><stop offset=".555" stop-color="#6057b0"/><stop offset=".563" stop-color="#6156b0"/><stop offset=".57" stop-color="#6156b0"/><stop offset=".578" stop-color="#6155af"/><stop offset=".582" stop-color="#6254af"/><stop offset=".586" stop-color="#6254af"/><stop offset=".59" stop-color="#6254ae"/><stop offset=".594" stop-color="#6353ae"/><stop offset=".602" stop-color="#6353ae"/><stop offset=".609" stop-color="#6352ae"/><stop offset=".617" stop-color="#6452ad"/><stop offset=".625" stop-color="#6451ad"/><stop offset=".633" stop-color="#6451ad"/><stop offset=".641" stop-color="#6550ac"/><stop offset=".648" stop-color="#6550ac"/><stop offset=".656" stop-color="#664fac"/><stop offset=".664" stop-color="#664fac"/><stop offset=".672" stop-color="#674eab"/><stop offset=".68" stop-color="#674eab"/><stop offset=".688" stop-color="#684eab"/><stop offset=".695" stop-color="#694dab"/><stop offset=".703" stop-color="#694daa"/><stop offset=".711" stop-color="#694caa"/><stop offset=".719" stop-color="#6a4caa"/><stop offset=".723" stop-color="#6a4ba9"/><stop offset=".727" stop-color="#6a4ba9"/><stop offset=".73" stop-color="#6b4aa9"/><stop offset=".734" stop-color="#6b4aa9"/><stop offset=".738" stop-color="#6c4aa9"/><stop offset=".742" stop-color="#6c4aa9"/><stop offset=".75" stop-color="#6d49a9"/><stop offset=".758" stop-color="#6d49a8"/><stop offset=".766" stop-color="#6e49a8"/><stop offset=".781" stop-color="#6f48a8"/><stop offset=".785" stop-color="#6f48a8"/><stop offset=".789" stop-color="#7047a8"/><stop offset=".793" stop-color="#7047a7"/><stop offset=".797" stop-color="#7147a7"/><stop offset=".805" stop-color="#7147a7"/><stop offset=".813" stop-color="#7246a7"/><stop offset=".82" stop-color="#7246a7"/><stop offset=".824" stop-color="#7346a7"/><stop offset=".828" stop-color="#7345a6"/><stop offset=".832" stop-color="#7445a6"/><stop offset=".836" stop-color="#7445a6"/><stop offset=".844" stop-color="#7544a6"/><stop offset=".859" stop-color="#7544a6"/><stop offset=".863" stop-color="#7644a6"/><stop offset=".867" stop-color="#7644a6"/><stop offset=".871" stop-color="#7744a6"/><stop offset=".875" stop-color="#7743a6"/><stop offset=".879" stop-color="#7843a6"/><stop offset=".883" stop-color="#7843a5"/><stop offset=".891" stop-color="#7943a5"/><stop offset=".898" stop-color="#7943a5"/><stop offset=".906" stop-color="#7a42a5"/><stop offset=".914" stop-color="#7a42a5"/><stop offset=".922" stop-color="#7b42a5"/><stop offset=".926" stop-color="#7c41a5"/><stop offset=".93" stop-color="#7c41a5"/><stop offset=".934" stop-color="#7d41a4"/><stop offset=".938" stop-color="#7d41a4"/><stop offset=".945" stop-color="#7e41a4"/><stop offset=".953" stop-color="#7e40a4"/><stop offset=".961" stop-color="#7f40a4"/><stop offset=".969" stop-color="#7f40a4"/><stop offset=".977" stop-color="#8040a4"/><stop offset=".984" stop-color="#8040a4"/><stop offset=".988" stop-color="#813fa4"/><stop offset=".992" stop-color="#823fa4"/><stop offset=".996" stop-color="#833fa4"/><stop offset="1" stop-color="#833fa4"/></linearGradient><linearGradient gradientTransform="rotate(90 112.89 367.408) scale(490.966)" gradientUnits="userSpaceOnUse" id="l" x1=".149" x2="1.018" xlink:actuate="onLoad" xlink:show="other" xlink:type="simple" xmlns:xlink="http://www.w3.org/1999/xlink" y1="0" y2="0"><stop offset="0" stop-color="#61b8ea"/><stop offset=".004" stop-color="#62b7e9"/><stop offset=".008" stop-color="#62b6e8"/><stop offset=".012" stop-color="#62b5e8"/><stop offset=".016" stop-color="#61b4e7"/><stop offset=".02" stop-color="#61b3e7"/><stop offset=".023" stop-color="#61b2e6"/><stop offset=".027" stop-color="#61b1e5"/><stop offset=".031" stop-color="#60afe5"/><stop offset=".035" stop-color="#60aee4"/><stop offset=".039" stop-color="#60ade4"/><stop offset=".043" stop-color="#60ace3"/><stop offset=".047" stop-color="#60abe2"/><stop offset=".051" stop-color="#60aae2"/><stop offset=".055" stop-color="#60a9e1"/><stop offset=".059" stop-color="#61a8e1"/><stop offset=".063" stop-color="#61a7e0"/><stop offset=".066" stop-color="#61a6df"/><stop offset=".07" stop-color="#61a5df"/><stop offset=".074" stop-color="#61a4de"/><stop offset=".078" stop-color="#61a4de"/><stop offset=".082" stop-color="#61a3dd"/><stop offset=".086" stop-color="#61a2dd"/><stop offset=".09" stop-color="#61a1dc"/><stop offset=".094" stop-color="#61a0dc"/><stop offset=".098" stop-color="#619fdb"/><stop offset=".102" stop-color="#619eda"/><stop offset=".105" stop-color="#619dda"/><stop offset=".109" stop-color="#619cd9"/><stop offset=".113" stop-color="#619bd9"/><stop offset=".117" stop-color="#619ad8"/><stop offset=".121" stop-color="#6199d8"/><stop offset=".125" stop-color="#6198d7"/><stop offset=".129" stop-color="#6097d7"/><stop offset=".133" stop-color="#6096d6"/><stop offset=".137" stop-color="#6096d6"/><stop offset=".141" stop-color="#6095d5"/><stop offset=".145" stop-color="#6094d5"/><stop offset=".148" stop-color="#6093d4"/><stop offset=".152" stop-color="#6092d3"/><stop offset=".156" stop-color="#6090d3"/><stop offset=".16" stop-color="#6090d2"/><stop offset=".164" stop-color="#5f8fd2"/><stop offset=".168" stop-color="#5f8ed1"/><stop offset=".172" stop-color="#5f8dd1"/><stop offset=".176" stop-color="#5f8cd0"/><stop offset=".18" stop-color="#5f8bd0"/><stop offset=".184" stop-color="#5f8acf"/><stop offset=".188" stop-color="#5e89cf"/><stop offset=".191" stop-color="#5e88ce"/><stop offset=".195" stop-color="#5e88ce"/><stop offset=".199" stop-color="#5f87cd"/><stop offset=".203" stop-color="#5f86cc"/><stop offset=".207" stop-color="#5f85cc"/><stop offset=".211" stop-color="#5f84cb"/><stop offset=".215" stop-color="#5f83cb"/><stop offset=".219" stop-color="#5f82ca"/><stop offset=".223" stop-color="#5e81ca"/><stop offset=".227" stop-color="#5e81c9"/><stop offset=".23" stop-color="#5e80c9"/><stop offset=".234" stop-color="#5d7fc8"/><stop offset=".238" stop-color="#5d7ec8"/><stop offset=".242" stop-color="#5d7dc7"/><stop offset=".246" stop-color="#5d7cc7"/><stop offset=".25" stop-color="#5d7bc6"/><stop offset=".254" stop-color="#5c7bc6"/><stop offset=".258" stop-color="#5c7ac6"/><stop offset=".262" stop-color="#5c79c5"/><stop offset=".266" stop-color="#5c79c5"/><stop offset=".27" stop-color="#5c78c4"/><stop offset=".273" stop-color="#5c77c4"/><stop offset=".277" stop-color="#5b76c3"/><stop offset=".281" stop-color="#5b75c3"/><stop offset=".285" stop-color="#5b74c2"/><stop offset=".289" stop-color="#5b74c2"/><stop offset=".293" stop-color="#5b73c1"/><stop offset=".297" stop-color="#5b72c1"/><stop offset=".301" stop-color="#5b71c0"/><stop offset=".305" stop-color="#5b70c0"/><stop offset=".309" stop-color="#5b70bf"/><stop offset=".313" stop-color="#5b6fbf"/><stop offset=".316" stop-color="#5b6ebe"/><stop offset=".32" stop-color="#5a6dbe"/><stop offset=".324" stop-color="#5a6dbe"/><stop offset=".328" stop-color="#5a6cbd"/><stop offset=".332" stop-color="#5a6bbd"/><stop offset=".336" stop-color="#5a6bbc"/><stop offset=".34" stop-color="#5a6abc"/><stop offset=".344" stop-color="#5a69bc"/><stop offset=".348" stop-color="#5a69bb"/><stop offset=".352" stop-color="#5a68bb"/><stop offset=".355" stop-color="#5b67ba"/><stop offset=".359" stop-color="#5b67ba"/><stop offset=".363" stop-color="#5b66b9"/><stop offset=".367" stop-color="#5b65b9"/><stop offset=".371" stop-color="#5b65b9"/><stop offset=".375" stop-color="#5b64b8"/><stop offset=".379" stop-color="#5b63b8"/><stop offset=".383" stop-color="#5b63b7"/><stop offset=".387" stop-color="#5b62b7"/><stop offset=".391" stop-color="#5b62b7"/><stop offset=".395" stop-color="#5c61b7"/><stop offset=".398" stop-color="#5c61b6"/><stop offset=".402" stop-color="#5c60b6"/><stop offset=".406" stop-color="#5c60b6"/><stop offset=".41" stop-color="#5c5fb5"/><stop offset=".414" stop-color="#5c5fb5"/><stop offset=".418" stop-color="#5c5fb5"/><stop offset=".422" stop-color="#5c5eb5"/><stop offset=".426" stop-color="#5d5eb4"/><stop offset=".43" stop-color="#5d5db4"/><stop offset=".434" stop-color="#5d5db4"/><stop offset=".438" stop-color="#5d5db4"/><stop offset=".441" stop-color="#5d5cb3"/><stop offset=".445" stop-color="#5d5cb3"/><stop offset=".449" stop-color="#5d5bb3"/><stop offset=".453" stop-color="#5e5bb3"/><stop offset=".457" stop-color="#5e5bb2"/><stop offset=".461" stop-color="#5e5ab2"/><stop offset=".465" stop-color="#5e5ab2"/><stop offset=".469" stop-color="#5f59b2"/><stop offset=".473" stop-color="#5f59b1"/><stop offset=".477" stop-color="#5f58b1"/><stop offset=".48" stop-color="#5f58b1"/><stop offset=".484" stop-color="#6058b1"/><stop offset=".492" stop-color="#6057b1"/><stop offset=".5" stop-color="#6057b0"/><stop offset=".508" stop-color="#6156b0"/><stop offset=".516" stop-color="#6156b0"/><stop offset=".523" stop-color="#6255af"/><stop offset=".527" stop-color="#6254af"/><stop offset=".531" stop-color="#6254af"/><stop offset=".535" stop-color="#6253ae"/><stop offset=".539" stop-color="#6353ae"/><stop offset=".547" stop-color="#6353ae"/><stop offset=".555" stop-color="#6352ad"/><stop offset=".563" stop-color="#6451ad"/><stop offset=".57" stop-color="#6451ad"/><stop offset=".578" stop-color="#6550ac"/><stop offset=".586" stop-color="#6550ac"/><stop offset=".594" stop-color="#664fac"/><stop offset=".602" stop-color="#664fac"/><stop offset=".609" stop-color="#674eab"/><stop offset=".617" stop-color="#684eab"/><stop offset=".625" stop-color="#684dab"/><stop offset=".633" stop-color="#694daa"/><stop offset=".641" stop-color="#694caa"/><stop offset=".648" stop-color="#6a4caa"/><stop offset=".656" stop-color="#6a4ba9"/><stop offset=".66" stop-color="#6b4aa9"/><stop offset=".664" stop-color="#6c4aa9"/><stop offset=".668" stop-color="#6c4aa9"/><stop offset=".672" stop-color="#6c4aa9"/><stop offset=".68" stop-color="#6d49a9"/><stop offset=".688" stop-color="#6e49a8"/><stop offset=".703" stop-color="#6e49a8"/><stop offset=".707" stop-color="#6f48a8"/><stop offset=".711" stop-color="#7048a8"/><stop offset=".715" stop-color="#7047a8"/><stop offset=".719" stop-color="#7147a7"/><stop offset=".727" stop-color="#7147a7"/><stop offset=".734" stop-color="#7246a7"/><stop offset=".742" stop-color="#7246a7"/><stop offset=".746" stop-color="#7345a7"/><stop offset=".75" stop-color="#7345a6"/><stop offset=".754" stop-color="#7445a6"/><stop offset=".758" stop-color="#7444a6"/><stop offset=".766" stop-color="#7544a6"/><stop offset=".773" stop-color="#7544a6"/><stop offset=".781" stop-color="#7644a6"/><stop offset=".785" stop-color="#7744a6"/><stop offset=".789" stop-color="#7744a6"/><stop offset=".793" stop-color="#7843a6"/><stop offset=".797" stop-color="#7843a6"/><stop offset=".805" stop-color="#7843a5"/><stop offset=".813" stop-color="#7943a5"/><stop offset=".82" stop-color="#7a42a5"/><stop offset=".828" stop-color="#7b42a5"/><stop offset=".832" stop-color="#7b42a5"/><stop offset=".836" stop-color="#7c41a5"/><stop offset=".84" stop-color="#7c41a5"/><stop offset=".844" stop-color="#7d41a4"/><stop offset=".848" stop-color="#7d41a4"/><stop offset=".852" stop-color="#7e41a4"/><stop offset=".859" stop-color="#7e40a4"/><stop offset=".867" stop-color="#7e40a4"/><stop offset=".875" stop-color="#7f40a4"/><stop offset=".883" stop-color="#8040a4"/><stop offset=".887" stop-color="#8040a4"/><stop offset=".891" stop-color="#813fa4"/><stop offset=".895" stop-color="#823fa4"/><stop offset=".898" stop-color="#823fa4"/><stop offset=".902" stop-color="#833fa4"/><stop offset=".906" stop-color="#843fa4"/><stop offset=".914" stop-color="#843fa4"/><stop offset=".922" stop-color="#853fa4"/><stop offset=".926" stop-color="#853ea3"/><stop offset=".93" stop-color="#863ea3"/><stop offset=".934" stop-color="#863ea3"/><stop offset=".938" stop-color="#873ea3"/><stop offset=".941" stop-color="#873da3"/><stop offset=".945" stop-color="#883da3"/><stop offset=".953" stop-color="#883da3"/><stop offset=".961" stop-color="#893da3"/><stop offset=".965" stop-color="#8a3da3"/><stop offset=".969" stop-color="#8a3da3"/><stop offset=".973" stop-color="#8b3ca3"/><stop offset=".977" stop-color="#8b3ca3"/><stop offset=".984" stop-color="#8b3ca3"/><stop offset="1" stop-color="#8c3ca3"/></linearGradient><linearGradient gradientTransform="rotate(90 24.578 279.076) scale(490.992)" gradientUnits="userSpaceOnUse" id="p" x1=".68" x2=".819" xlink:actuate="onLoad" xlink:show="other" xlink:type="simple" xmlns:xlink="http://www.w3.org/1999/xlink" y1="0" y2="0"><stop offset="0" stop-color="#674eab"/><stop offset=".031" stop-color="#674eab"/><stop offset=".063" stop-color="#684eab"/><stop offset=".094" stop-color="#684dab"/><stop offset=".125" stop-color="#694dab"/><stop offset=".156" stop-color="#694caa"/><stop offset=".188" stop-color="#694caa"/><stop offset=".219" stop-color="#694caa"/><stop offset=".25" stop-color="#6a4baa"/><stop offset=".281" stop-color="#6a4ba9"/><stop offset=".313" stop-color="#6b4ba9"/><stop offset=".344" stop-color="#6b4aa9"/><stop offset=".375" stop-color="#6c4aa9"/><stop offset=".406" stop-color="#6d4aa9"/><stop offset=".438" stop-color="#6d49a9"/><stop offset=".5" stop-color="#6e49a8"/><stop offset=".563" stop-color="#6e49a8"/><stop offset=".594" stop-color="#6f48a8"/><stop offset=".625" stop-color="#6f48a8"/><stop offset=".656" stop-color="#7047a8"/><stop offset=".688" stop-color="#7147a7"/><stop offset=".75" stop-color="#7147a7"/><stop offset=".813" stop-color="#7246a7"/><stop offset=".844" stop-color="#7346a7"/><stop offset=".875" stop-color="#7345a6"/><stop offset=".906" stop-color="#7445a6"/><stop offset=".938" stop-color="#7544a6"/><stop offset="1" stop-color="#7544a6"/></linearGradient><linearGradient gradientTransform="rotate(90 200.625 455.074) scale(491.161)" gradientUnits="userSpaceOnUse" id="t" x1=".274" x2=".396" xlink:actuate="onLoad" xlink:show="other" xlink:type="simple" xmlns:xlink="http://www.w3.org/1999/xlink" y1="0" y2="0"><stop offset="0" stop-color="#6094d5"/><stop offset=".016" stop-color="#6094d5"/><stop offset=".031" stop-color="#6093d4"/><stop offset=".047" stop-color="#6092d4"/><stop offset=".063" stop-color="#6092d4"/><stop offset=".078" stop-color="#6091d3"/><stop offset=".094" stop-color="#6091d3"/><stop offset=".109" stop-color="#6090d3"/><stop offset=".125" stop-color="#6090d2"/><stop offset=".141" stop-color="#608fd2"/><stop offset=".156" stop-color="#5f8fd2"/><stop offset=".172" stop-color="#5f8ed1"/><stop offset=".188" stop-color="#5f8ed1"/><stop offset=".203" stop-color="#5f8dd1"/><stop offset=".219" stop-color="#5f8dd0"/><stop offset=".234" stop-color="#5f8cd0"/><stop offset=".25" stop-color="#5f8cd0"/><stop offset=".266" stop-color="#5f8bd0"/><stop offset=".281" stop-color="#5f8bcf"/><stop offset=".297" stop-color="#5f8acf"/><stop offset=".313" stop-color="#5e8acf"/><stop offset=".328" stop-color="#5e89ce"/><stop offset=".344" stop-color="#5e89ce"/><stop offset=".359" stop-color="#5e88ce"/><stop offset=".375" stop-color="#5e88ce"/><stop offset=".391" stop-color="#5e87cd"/><stop offset=".406" stop-color="#5f86cd"/><stop offset=".422" stop-color="#5f86cd"/><stop offset=".438" stop-color="#5f85cc"/><stop offset=".453" stop-color="#5f85cc"/><stop offset=".469" stop-color="#5f84cc"/><stop offset=".484" stop-color="#5f84cb"/><stop offset=".5" stop-color="#5f83cb"/><stop offset=".516" stop-color="#5f83cb"/><stop offset=".531" stop-color="#5f82ca"/><stop offset=".547" stop-color="#5e82ca"/><stop offset=".563" stop-color="#5e81ca"/><stop offset=".578" stop-color="#5e81ca"/><stop offset=".594" stop-color="#5e81c9"/><stop offset=".609" stop-color="#5e80c9"/><stop offset=".625" stop-color="#5e80c9"/><stop offset=".641" stop-color="#5e7fc9"/><stop offset=".656" stop-color="#5d7fc8"/><stop offset=".672" stop-color="#5d7ec8"/><stop offset=".688" stop-color="#5d7ec8"/><stop offset=".703" stop-color="#5d7dc8"/><stop offset=".719" stop-color="#5d7dc7"/><stop offset=".734" stop-color="#5d7cc7"/><stop offset=".75" stop-color="#5d7cc7"/><stop offset=".766" stop-color="#5d7bc6"/><stop offset=".781" stop-color="#5c7bc6"/><stop offset=".797" stop-color="#5c7bc6"/><stop offset=".813" stop-color="#5c7ac6"/><stop offset=".828" stop-color="#5c7ac5"/><stop offset=".844" stop-color="#5c79c5"/><stop offset=".859" stop-color="#5c79c5"/><stop offset=".875" stop-color="#5c79c5"/><stop offset=".891" stop-color="#5c78c4"/><stop offset=".906" stop-color="#5c78c4"/><stop offset=".922" stop-color="#5c77c4"/><stop offset=".938" stop-color="#5c77c4"/><stop offset=".953" stop-color="#5c76c3"/><stop offset=".969" stop-color="#5b76c3"/><stop offset=".984" stop-color="#5b75c3"/><stop offset="1" stop-color="#5b75c2"/></linearGradient></defs><g><g clip-path="url(#a)"><g clip-path="url(#b)"><g clip-path="url(#c)"><path d="M 844.800781 245.6875 L 194.5625 245.6875 L 194.5625 631.394531 L 844.800781 631.394531 Z M 844.800781 245.6875" fill="url(#d)"/></g></g></g><g clip-path="url(#e)"><g clip-path="url(#f)"><g clip-path="url(#g)"><path d="M 805.398438 327.691406 L 155.160156 327.691406 L 155.160156 713.394531 L 805.398438 713.394531 Z M 805.398438 327.691406" fill="url(#h)"/></g></g></g><g clip-path="url(#i)"><g clip-path="url(#j)"><g clip-path="url(#k)"><path d="M 805.398438 327.691406 L 155.160156 327.691406 L 155.160156 754.351562 L 805.398438 754.351562 Z M 805.398438 327.691406" fill="url(#l)"/></g></g></g><g clip-path="url(#m)"><g clip-path="url(#n)"><g clip-path="url(#o)"><path d="M 355.617188 588.128906 L 251.691406 588.128906 L 251.691406 656.777344 L 355.617188 656.777344 Z M 355.617188 588.128906" fill="url(#p)"/></g></g></g><g clip-path="url(#q)"><g clip-path="url(#r)"><g clip-path="url(#s)"><path d="M 699.449219 388.902344 L 611.933594 388.902344 L 611.933594 449.050781 L 699.449219 449.050781 Z M 699.449219 388.902344" fill="url(#t)"/></g></g></g></g></svg>