<?xml version="1.0" encoding="UTF-8"?><svg xmlns="http://www.w3.org/2000/svg" xmlns:xlink="http://www.w3.org/1999/xlink" height="60.0" preserveAspectRatio="xMidYMid meet" version="1.0" viewBox="2.0 2.0 60.1 60.0" width="60.1" zoomAndPan="magnify"><g><g><path d="M 19 37 C 15.132812 37 12 33.867188 12 30 C 12 26.132812 15.132812 23 19 23 C 22.867188 23 26 26.132812 26 30 C 26 33.867188 22.867188 37 19 37 Z M 35 34 L 35 26 L 31.367188 26 C 31.152344 25.335938 30.882812 24.699219 30.570312 24.089844 L 33.144531 21.515625 L 27.484375 15.859375 L 24.910156 18.429688 C 24.300781 18.117188 23.664062 17.847656 23 17.632812 L 23 14 L 15 14 L 15 17.632812 C 14.335938 17.847656 13.699219 18.117188 13.089844 18.429688 L 10.515625 15.859375 L 4.855469 21.515625 L 7.429688 24.089844 C 7.117188 24.699219 6.847656 25.335938 6.632812 26 L 3 26 L 3 34 L 6.632812 34 C 6.847656 34.664062 7.117188 35.300781 7.429688 35.910156 L 4.855469 38.484375 L 10.515625 44.140625 L 13.089844 41.570312 C 13.699219 41.882812 14.335938 42.152344 15 42.367188 L 15 46 L 23 46 L 23 42.367188 C 23.664062 42.152344 24.300781 41.882812 24.910156 41.570312 L 27.484375 44.140625 L 33.144531 38.484375 L 30.570312 35.910156 C 30.882812 35.300781 31.152344 34.664062 31.367188 34 L 35 34" fill="#f7b60b"/></g><g><path d="M 31.371094 34 C 31.152344 34.660156 30.878906 35.300781 30.570312 35.910156 L 33.140625 38.488281 L 27.488281 44.140625 L 24.910156 41.570312 C 24.300781 41.878906 23.660156 42.148438 23 42.371094 L 23 46 L 15 46 L 15 42.371094 C 14.339844 42.148438 13.699219 41.878906 13.089844 41.570312 L 10.511719 44.140625 L 4.859375 38.488281 L 7.429688 35.910156 C 7.121094 35.300781 6.851562 34.660156 6.628906 34 L 3 34 L 3 26 L 6.628906 26 C 6.851562 25.339844 7.121094 24.699219 7.429688 24.089844 L 4.859375 21.511719 L 9.308594 17.058594 C 8.46875 19.039062 8 21.210938 8 23.5 C 8 27.761719 9.628906 31.628906 12.28125 34.550781 C 12.582031 34.332031 12.902344 34.128906 13.230469 33.960938 C 14.488281 35.800781 16.597656 37 19 37 C 22.871094 37 26 33.871094 26 30 C 26 26.128906 22.871094 23 19 23 C 18.660156 23 18.320312 23.019531 18 23.070312 L 18 19.238281 C 17.179688 18.582031 16.5 17.769531 16 16.851562 L 16 14 L 23 14 L 23 17.628906 C 23.660156 17.851562 24.300781 18.121094 24.910156 18.429688 L 27.488281 15.859375 L 33.140625 21.511719 L 30.570312 24.089844 C 30.878906 24.699219 31.152344 25.339844 31.371094 26 L 35 26 L 35 34 L 31.371094 34" fill="#e48e1e"/></g><g><path d="M 49 61 L 13 61 L 13 41 C 13 36.582031 16.582031 33 21 33 L 41 33 C 45.417969 33 49 36.582031 49 41 L 49 61" fill="#6dbbea"/></g><g><path d="M 49 55 L 49 61 L 13 61 L 13 41 C 13 36.917969 16.050781 33.550781 20 33.058594 L 20 40 C 20 48.28125 26.71875 55 35 55 L 49 55" fill="#578fd3"/></g><g><path d="M 28 61 L 31 61 L 31 38 L 28 38 L 28 61" fill="#578fd3"/></g><g><path d="M 36 21 L 26 21 C 21.582031 21 18 17.417969 18 13 C 18 7.476562 22.476562 3 28 3 L 34 3 C 39.523438 3 44 7.476562 44 13 C 44 17.417969 40.417969 21 36 21" fill="#578fd3"/></g><g><path d="M 43.820312 14.699219 C 43.488281 16.230469 42.71875 17.589844 41.660156 18.660156 C 40.210938 20.101562 38.210938 21 36 21 L 26 21 C 21.582031 21 18 17.417969 18 13 C 18 10.238281 19.121094 7.738281 20.929688 5.929688 C 21.917969 4.941406 23.121094 4.160156 24.449219 3.648438 C 25.140625 5.039062 26.582031 6 28.238281 6 C 29.371094 6 30.449219 6.449219 31.238281 7.238281 L 32.230469 8.230469 C 33.359375 9.359375 34.902344 10 36.511719 10 L 36.570312 10 C 38.699219 10 40.667969 11.121094 41.761719 12.941406 C 42.25 13.75 42.96875 14.351562 43.820312 14.699219" fill="#3f6dbe"/></g><g><path d="M 36 34 L 31 38 L 26 34 L 26 29 L 36 29 L 36 34" fill="#f7b60b"/></g><g><path d="M 36 31.128906 C 34.691406 32.417969 33.03125 33.351562 31.167969 33.761719 C 32.28125 34.371094 33.519531 34.78125 34.839844 34.929688 L 31 38 L 26 34 L 26 29 L 36 29 L 36 31.128906" fill="#e48e1e"/></g><g><path d="M 31 32 C 25.476562 32 21 27.523438 21 22 L 21 16 C 21 12.558594 23.53125 9.636719 26.941406 9.152344 L 28 9 C 29.859375 12.101562 33.214844 14 36.832031 14 L 41 14 L 41 22 C 41 27.523438 36.523438 32 31 32" fill="#f3e306"/></g><g><path d="M 40 33 L 34 44 L 31 38 L 36 34 L 36 33 L 40 33" fill="#578fd3"/></g><g><path d="M 22 33 L 24 44 L 31 38 L 26 34 L 26 33 L 22 33" fill="#578fd3"/></g><g><path d="M 24 13 L 24 19 C 24 24.519531 28.480469 29 34 29 C 36 29 37.859375 28.410156 39.410156 27.390625 C 37.640625 30.160156 34.53125 32 31 32 C 25.480469 32 21 27.519531 21 22 L 21 16 C 21 14.28125 21.628906 12.691406 22.691406 11.46875 C 23.75 10.25 25.238281 9.398438 26.941406 9.148438 L 28 9 C 28.929688 10.550781 30.230469 11.800781 31.761719 12.660156 C 33.28125 13.519531 35.019531 14 36.832031 14 L 41 14 L 41 16 L 36.832031 16 C 33.210938 16 29.859375 14.101562 28 11 L 26.941406 11.148438 C 25.871094 11.300781 24.890625 11.699219 24.039062 12.269531 C 24.019531 12.511719 24 12.75 24 13" fill="#f7b60b"/></g><g><path d="M 40 33 L 36 42 L 31 38 L 36 34 L 36 33 L 40 33" fill="#90d9f5"/></g><g><path d="M 22 33 L 26 42 L 31 38 L 26 34 L 26 33 L 22 33" fill="#90d9f5"/></g><g><path d="M 61 46.304688 L 52.707031 45.101562 L 49 37.585938 L 49 50 L 61 46.304688" fill="#edf03f"/></g><g><path d="M 37 46.304688 L 43 52.15625 L 41.585938 60.414062 L 49 50 L 37 46.304688" fill="#f7b60b"/></g><g><path d="M 61 46.304688 L 49 50 L 56.414062 60.414062 L 55 52.15625 L 61 46.304688" fill="#f3e306"/></g><g><path d="M 49 37.585938 L 45.292969 45.101562 L 37 46.304688 L 49 50 L 49 37.585938" fill="#f3e306"/></g><g><path d="M 41.585938 60.414062 L 49 56.511719 L 56.414062 60.414062 L 49 50 L 41.585938 60.414062" fill="#e48e1e"/></g><g><path d="M 59 30 L 49 30 C 47.894531 30 47 29.105469 47 28 L 47 18 C 47 16.894531 47.894531 16 49 16 L 59 16 L 59 30" fill="#b9de23"/></g><g><path d="M 59 27 L 59 30 L 49 30 C 47.902344 30 47 29.101562 47 28 L 47 18 C 47 16.898438 47.902344 16 49 16 L 49 19 C 49 23.417969 52.582031 27 57 27 L 59 27" fill="#95d221"/></g><g><path d="M 54 21 L 52 20 L 50 21 L 50 16 L 53 16 C 53.550781 16 54 16.449219 54 17 L 54 21" fill="#95d221"/></g><g><path d="M 55 20 L 53 19 L 51 20 L 51 16 C 51 15.449219 51.449219 15 52 15 L 54 15 C 54.550781 15 55 15.449219 55 16 L 55 20" fill="#f3e306"/></g><g><path d="M 55 17.71875 L 55 20 L 53 19 L 51 20 L 51 16 C 51 15.449219 51.449219 15 52 15 L 52.589844 15 L 52.589844 16.789062 C 52.589844 17.410156 53.089844 17.851562 53.652344 17.851562 C 53.800781 17.851562 53.960938 17.820312 54.121094 17.738281 C 54.390625 17.601562 54.710938 17.589844 55 17.71875" fill="#f7b60b"/></g><g><path d="M 12.382812 19.140625 C 12.691406 19.445312 13.160156 19.519531 13.542969 19.320312 C 14.128906 19.023438 14.71875 18.773438 15.308594 18.585938 C 15.71875 18.453125 16 18.066406 16 17.632812 L 16 16 C 16 15.449219 15.550781 15 15 15 C 14.449219 15 14 15.449219 14 16 L 14 16.925781 C 13.765625 17.019531 13.53125 17.117188 13.292969 17.222656 L 11.222656 15.152344 C 10.832031 14.761719 10.199219 14.761719 9.808594 15.152344 L 4.148438 20.808594 C 3.960938 20.996094 3.855469 21.25 3.855469 21.515625 C 3.855469 21.78125 3.960938 22.035156 4.148438 22.222656 L 6.222656 24.292969 C 6.117188 24.527344 6.019531 24.765625 5.925781 25 L 3 25 C 2.449219 25 2 25.449219 2 26 L 2 34 C 2 34.550781 2.449219 35 3 35 L 5.925781 35 C 6.019531 35.234375 6.117188 35.472656 6.222656 35.707031 L 4.148438 37.777344 C 3.960938 37.964844 3.855469 38.21875 3.855469 38.484375 C 3.855469 38.75 3.960938 39.003906 4.148438 39.191406 L 8.363281 43.402344 C 8.558594 43.597656 8.8125 43.695312 9.070312 43.695312 C 9.324219 43.695312 9.582031 43.597656 9.777344 43.402344 C 10.167969 43.011719 10.167969 42.378906 9.777344 41.988281 L 6.269531 38.484375 L 8.136719 36.617188 C 8.445312 36.3125 8.519531 35.84375 8.320312 35.457031 C 8.019531 34.871094 7.773438 34.277344 7.585938 33.691406 C 7.453125 33.28125 7.066406 33 6.632812 33 L 4 33 L 4 27 L 6.632812 27 C 7.066406 27 7.453125 26.71875 7.585938 26.308594 C 7.773438 25.722656 8.019531 25.128906 8.320312 24.542969 C 8.519531 24.15625 8.445312 23.6875 8.136719 23.382812 L 6.269531 21.515625 L 10.515625 17.273438 L 12.382812 19.140625" fill="#2d2c2c"/></g><g><path d="M 35.613281 40.410156 L 32.601562 38 L 36.625 34.78125 C 36.863281 34.589844 37 34.304688 37 34 L 38.460938 34 Z M 26.386719 40.410156 L 23.539062 34 L 25 34 C 25 34.304688 25.136719 34.589844 25.375 34.78125 L 29.398438 38 Z M 31 33 C 32.410156 33 33.757812 32.722656 35 32.234375 L 35 33.519531 L 31 36.71875 L 27 33.519531 L 27 32.234375 C 28.242188 32.722656 29.589844 33 31 33 Z M 22 22 L 22 16 C 22 13.074219 24.183594 10.554688 27.082031 10.140625 L 27.507812 10.082031 C 29.597656 13.132812 33.109375 15 36.832031 15 L 40 15 L 40 22 C 40 26.960938 35.964844 31 31 31 C 26.035156 31 22 26.960938 22 22 Z M 36.914062 42.40625 L 40.652344 34 L 41 34 C 42.574219 34 44.070312 34.527344 45.324219 35.523438 C 45.507812 35.667969 45.726562 35.738281 45.945312 35.738281 C 46.238281 35.738281 46.53125 35.609375 46.726562 35.359375 C 47.074219 34.925781 47 34.296875 46.566406 33.957031 C 44.957031 32.675781 43.03125 32 41 32 L 37 32 L 37 31.207031 C 40.007812 29.242188 42 25.851562 42 22 L 42 19.683594 C 43.90625 17.972656 45 15.570312 45 13 C 45 6.933594 40.066406 2 34 2 L 28 2 C 25.3125 2 22.71875 2.988281 20.699219 4.789062 C 20.285156 5.15625 20.25 5.785156 20.617188 6.199219 C 20.980469 6.609375 21.617188 6.648438 22.027344 6.28125 C 23.679688 4.808594 25.800781 4 28 4 L 34 4 C 38.964844 4 43 8.039062 43 13 C 43 14.285156 42.644531 15.511719 42 16.582031 L 42 14 C 42 13.449219 41.550781 13 41 13 L 36.832031 13 C 33.585938 13 30.527344 11.269531 28.855469 8.484375 C 28.652344 8.140625 28.261719 7.953125 27.859375 8.011719 L 26.796875 8.160156 C 22.921875 8.714844 20 12.085938 20 16 L 20 16.578125 C 19.355469 15.511719 19 14.28125 19 13 C 19 11.6875 19.285156 10.40625 19.851562 9.199219 C 20.085938 8.699219 19.871094 8.101562 19.371094 7.867188 C 18.867188 7.636719 18.273438 7.851562 18.039062 8.351562 C 17.347656 9.828125 17 11.394531 17 13 C 17 15.570312 18.09375 17.972656 20 19.683594 L 20 22 C 20 25.851562 21.992188 29.242188 25 31.207031 L 25 32 L 21 32 C 18.65625 32 16.523438 32.910156 14.917969 34.386719 C 13.707031 33.257812 13 31.671875 13 30 C 13 27.367188 14.761719 25.003906 17.285156 24.253906 C 17.816406 24.09375 18.117188 23.539062 17.957031 23.007812 C 17.800781 22.480469 17.246094 22.175781 16.714844 22.335938 C 13.347656 23.335938 11 26.488281 11 30 C 11 32.25 11.957031 34.382812 13.597656 35.890625 C 12.59375 37.34375 12 39.101562 12 41 L 12 61 C 12 61.550781 12.449219 62 13 62 C 13.550781 62 14 61.550781 14 61 L 14 41 C 14 37.140625 17.140625 34 21 34 L 21.347656 34 L 25.085938 42.40625 C 25.210938 42.691406 25.460938 42.898438 25.765625 42.972656 C 25.84375 42.992188 25.921875 43 26 43 C 26.222656 43 26.445312 42.925781 26.625 42.78125 L 30 40.082031 L 30 60 C 30 60.550781 30.449219 61 31 61 C 31.550781 61 32 60.550781 32 60 L 32 40.082031 L 35.375 42.78125 C 35.554688 42.925781 35.777344 43 36 43 C 36.078125 43 36.15625 42.992188 36.234375 42.972656 C 36.539062 42.898438 36.789062 42.691406 36.914062 42.40625" fill="#2d2c2c"/></g><g><path d="M 20 45 C 19.449219 45 19 45.449219 19 46 L 19 61 C 19 61.550781 19.449219 62 20 62 C 20.550781 62 21 61.550781 21 61 L 21 46 C 21 45.449219 20.550781 45 20 45" fill="#2d2c2c"/></g><g><path d="M 24.292969 18.292969 C 23.902344 18.683594 23.902344 19.316406 24.292969 19.707031 C 24.683594 20.097656 25.316406 20.097656 25.707031 19.707031 C 26.417969 18.992188 27.582031 18.992188 28.292969 19.707031 C 28.488281 19.902344 28.742188 20 29 20 C 29.257812 20 29.511719 19.902344 29.707031 19.707031 C 30.097656 19.316406 30.097656 18.683594 29.707031 18.292969 C 28.214844 16.800781 25.785156 16.800781 24.292969 18.292969" fill="#2d2c2c"/></g><g><path d="M 33.707031 19.707031 C 34.417969 18.992188 35.582031 18.992188 36.292969 19.707031 C 36.488281 19.902344 36.742188 20 37 20 C 37.257812 20 37.511719 19.902344 37.707031 19.707031 C 38.097656 19.316406 38.097656 18.683594 37.707031 18.292969 C 36.214844 16.800781 33.785156 16.800781 32.292969 18.292969 C 31.902344 18.683594 31.902344 19.316406 32.292969 19.707031 C 32.683594 20.097656 33.316406 20.097656 33.707031 19.707031" fill="#2d2c2c"/></g><g><path d="M 39 11 C 39.550781 11 40 10.550781 40 10 C 40 9.449219 39.550781 9 39 9 C 36.6875 9 34.515625 8.097656 32.878906 6.464844 L 32.707031 6.292969 C 32.316406 5.902344 31.679688 5.902344 31.292969 6.292969 C 30.902344 6.683594 30.902344 7.320312 31.292969 7.707031 L 31.464844 7.878906 C 33.476562 9.890625 36.152344 11 39 11" fill="#2d2c2c"/></g><g><path d="M 54 16 L 54 18.382812 L 53.449219 18.105469 C 53.304688 18.035156 53.152344 18 53 18 C 52.847656 18 52.695312 18.035156 52.550781 18.105469 L 52 18.382812 L 52 16 Z M 49 31 L 59 31 C 59.550781 31 60 30.550781 60 30 L 60 25 C 60 24.449219 59.550781 24 59 24 C 58.449219 24 58 24.449219 58 25 L 58 29 L 49 29 C 48.449219 29 48 28.550781 48 28 L 48 18 C 48 17.449219 48.449219 17 49 17 L 50 17 L 50 20 C 50 20.347656 50.179688 20.667969 50.472656 20.851562 C 50.769531 21.03125 51.136719 21.046875 51.449219 20.894531 L 53 20.117188 L 54.550781 20.894531 C 54.695312 20.964844 54.847656 21 55 21 C 55.183594 21 55.363281 20.949219 55.527344 20.851562 C 55.820312 20.667969 56 20.347656 56 20 L 56 17 L 58 17 L 58 20.980469 C 58 21.535156 58.449219 21.980469 59 21.980469 C 59.550781 21.980469 60 21.535156 60 20.980469 L 60 16 C 60 15.449219 59.550781 15 59 15 L 55.722656 15 C 55.375 14.40625 54.734375 14 54 14 L 52 14 C 51.265625 14 50.625 14.40625 50.277344 15 L 49 15 C 47.34375 15 46 16.34375 46 18 L 46 28 C 46 29.65625 47.34375 31 49 31" fill="#2d2c2c"/></g><g><path d="M 51 24 C 50.449219 24 50 24.449219 50 25 C 50 25.550781 50.449219 26 51 26 L 54 26 C 54.550781 26 55 25.550781 55 25 C 55 24.449219 54.550781 24 54 24 L 51 24" fill="#2d2c2c"/></g><g><path d="M 54.300781 51.4375 C 54.066406 51.667969 53.960938 52 54.015625 52.324219 L 54.691406 56.265625 L 50.617188 50.546875 L 57.335938 48.480469 Z M 48.535156 55.628906 L 44.832031 57.574219 L 49 51.722656 L 53.167969 57.574219 L 49.464844 55.628906 C 49.171875 55.476562 48.828125 55.476562 48.535156 55.628906 Z M 40.664062 48.480469 L 47.382812 50.546875 L 43.308594 56.265625 L 43.984375 52.324219 C 44.039062 52 43.933594 51.667969 43.699219 51.4375 Z M 45.433594 46.089844 C 45.761719 46.042969 46.042969 45.839844 46.1875 45.542969 L 48 41.871094 L 48 48.644531 L 41.539062 46.65625 Z M 61.859375 45.796875 C 61.621094 45.398438 61.144531 45.214844 60.707031 45.351562 L 50 48.644531 L 50 41.871094 L 51.8125 45.542969 C 52.054688 46.039062 52.65625 46.242188 53.152344 45.996094 C 53.644531 45.753906 53.847656 45.152344 53.605469 44.660156 L 49.898438 37.144531 C 49.558594 36.460938 48.441406 36.460938 48.101562 37.144531 L 44.628906 44.1875 L 36.855469 45.316406 C 36.480469 45.371094 36.167969 45.636719 36.046875 45.996094 C 35.929688 46.359375 36.03125 46.757812 36.300781 47.023438 L 41.925781 52.503906 L 40.597656 60.242188 C 40.535156 60.617188 40.6875 61 40.996094 61.222656 C 41.304688 61.445312 41.714844 61.476562 42.050781 61.296875 L 49 57.644531 L 55.949219 61.296875 C 56.097656 61.375 56.257812 61.414062 56.414062 61.414062 C 56.621094 61.414062 56.828125 61.347656 57.003906 61.222656 C 57.3125 61 57.464844 60.617188 57.402344 60.242188 L 56.074219 52.503906 L 61.699219 47.023438 C 62.027344 46.699219 62.09375 46.191406 61.859375 45.796875" fill="#2d2c2c"/></g></g></svg>