<?xml version="1.0" encoding="UTF-8"?><svg xmlns="http://www.w3.org/2000/svg" xmlns:xlink="http://www.w3.org/1999/xlink" height="408.0" preserveAspectRatio="xMidYMid meet" version="1.0" viewBox="24.0 32.0 464.0 408.0" width="464.0" zoomAndPan="magnify"><g><g id="change1_1"><path d="M 488 440 L 24 440 L 24 72 L 488 72 L 488 440" fill="#eaeae8"/></g><g id="change2_1"><path d="M 200 440 L 24 440 L 24 72 L 200 72 L 200 440" fill="#fbb540"/></g><g id="change3_1"><path d="M 168 360 L 56 360 L 56 264 L 168 264 L 168 360" fill="#d18d28"/></g><g id="change4_1"><path d="M 128 296 L 112 288 L 96 296 L 96 264 L 128 264 L 128 296" fill="#ff3444"/></g><g id="change5_1"><path d="M 128 336 L 96 336 C 91.582031 336 88 332.417969 88 328 C 88 323.582031 91.582031 320 96 320 L 128 320 C 132.417969 320 136 323.582031 136 328 C 136 332.417969 132.417969 336 128 336" fill="#97661d"/></g><g id="change6_1"><path d="M 240 200 C 240 186.746094 250.746094 176 264 176 C 277.253906 176 288 186.746094 288 200 C 288 213.253906 277.253906 224 264 224 C 250.746094 224 240 213.253906 240 200" fill="#cbcbcb"/></g><g id="change6_2"><path d="M 320 200 C 320 186.746094 330.746094 176 344 176 C 357.253906 176 368 186.746094 368 200 C 368 213.253906 357.253906 224 344 224 C 330.746094 224 320 213.253906 320 200" fill="#cbcbcb"/></g><g id="change6_3"><path d="M 400 200 C 400 186.746094 410.746094 176 424 176 C 437.253906 176 448 186.746094 448 200 C 448 213.253906 437.253906 224 424 224 C 410.746094 224 400 213.253906 400 200" fill="#cbcbcb"/></g><g id="change6_4"><path d="M 240 280 C 240 266.746094 250.746094 256 264 256 C 277.253906 256 288 266.746094 288 280 C 288 293.253906 277.253906 304 264 304 C 250.746094 304 240 293.253906 240 280" fill="#cbcbcb"/></g><g id="change7_1"><path d="M 320 280 C 320 266.746094 330.746094 256 344 256 C 357.253906 256 368 266.746094 368 280 C 368 293.253906 357.253906 304 344 304 C 330.746094 304 320 293.253906 320 280" fill="#ea9d2d"/></g><g id="change2_2"><path d="M 400 280 C 400 266.746094 410.746094 256 424 256 C 437.253906 256 448 266.746094 448 280 C 448 293.253906 437.253906 304 424 304 C 410.746094 304 400 293.253906 400 280" fill="#fbb540"/></g><g id="change2_3"><path d="M 240 360 C 240 346.746094 250.746094 336 264 336 C 277.253906 336 288 346.746094 288 360 C 288 373.253906 277.253906 384 264 384 C 250.746094 384 240 373.253906 240 360" fill="#fbb540"/></g><g id="change6_5"><path d="M 320 360 C 320 346.746094 330.746094 336 344 336 C 357.253906 336 368 346.746094 368 360 C 368 373.253906 357.253906 384 344 384 C 330.746094 384 320 373.253906 320 360" fill="#cbcbcb"/></g><g id="change2_4"><path d="M 400 360 C 400 346.746094 410.746094 336 424 336 C 437.253906 336 448 346.746094 448 360 C 448 373.253906 437.253906 384 424 384 C 410.746094 384 400 373.253906 400 360" fill="#fbb540"/></g><g id="change8_1"><path d="M 344.003906 288 C 341.945312 288 339.898438 287.210938 338.34375 285.65625 L 322.34375 269.65625 C 319.21875 266.53125 319.21875 261.46875 322.34375 258.34375 C 325.46875 255.21875 330.53125 255.21875 333.65625 258.34375 L 344.492188 269.175781 L 386.878906 233.855469 C 390.273438 231.027344 395.316406 231.484375 398.144531 234.878906 C 400.972656 238.273438 400.515625 243.316406 397.121094 246.144531 L 349.121094 286.144531 C 347.632812 287.386719 345.8125 288 344.003906 288" fill="#02a437"/></g><g id="change1_2"><path d="M 72 192 C 72 169.910156 89.910156 152 112 152 C 134.089844 152 152 169.910156 152 192 C 152 214.089844 134.089844 232 112 232 C 89.910156 232 72 214.089844 72 192" fill="#eaeae8"/></g><g id="change6_6"><path d="M 127.992188 208.003906 C 126.792969 208.003906 125.570312 207.730469 124.421875 207.15625 L 108.421875 199.15625 C 105.710938 197.800781 104 195.03125 104 192 L 104 176 C 104 171.582031 107.582031 168 112 168 C 116.417969 168 120 171.582031 120 176 L 120 187.054688 L 131.578125 192.84375 C 135.53125 194.820312 137.132812 199.625 135.15625 203.578125 C 133.753906 206.382812 130.929688 208 127.992188 208.003906" fill="#cbcbcb"/></g><g id="change9_1"><path d="M 88 96 C 79.164062 96 72 88.835938 72 80 L 72 48 C 72 39.164062 79.164062 32 88 32 C 96.835938 32 104 39.164062 104 48 L 104 80 C 104 88.835938 96.835938 96 88 96" fill="#b9b9b9"/></g><g id="change9_2"><path d="M 200 96 C 191.164062 96 184 88.835938 184 80 L 184 48 C 184 39.164062 191.164062 32 200 32 C 208.835938 32 216 39.164062 216 48 L 216 80 C 216 88.835938 208.835938 96 200 96" fill="#b9b9b9"/></g><g id="change9_3"><path d="M 312 96 C 303.164062 96 296 88.835938 296 80 L 296 48 C 296 39.164062 303.164062 32 312 32 C 320.835938 32 328 39.164062 328 48 L 328 80 C 328 88.835938 320.835938 96 312 96" fill="#b9b9b9"/></g><g id="change9_4"><path d="M 424 96 C 415.164062 96 408 88.835938 408 80 L 408 48 C 408 39.164062 415.164062 32 424 32 C 432.835938 32 440 39.164062 440 48 L 440 80 C 440 88.835938 432.835938 96 424 96" fill="#b9b9b9"/></g><g id="change9_5"><path d="M 104 48 L 104 72 C 104 80.839844 96.839844 88 88 88 C 79.160156 88 72 80.839844 72 72 L 72 48 C 72 39.160156 79.160156 32 88 32 C 92.417969 32 96.417969 33.789062 99.320312 36.679688 C 102.210938 39.578125 104 43.578125 104 48" fill="#b9b9b9"/></g><g id="change9_6"><path d="M 216 48 L 216 72 C 216 80.839844 208.839844 88 200 88 C 191.160156 88 184 80.839844 184 72 L 184 48 C 184 39.160156 191.160156 32 200 32 C 204.421875 32 208.421875 33.789062 211.320312 36.679688 C 214.210938 39.578125 216 43.578125 216 48" fill="#b9b9b9"/></g><g id="change9_7"><path d="M 328 48 L 328 72 C 328 80.839844 320.839844 88 312 88 C 303.160156 88 296 80.839844 296 72 L 296 48 C 296 39.160156 303.160156 32 312 32 C 316.421875 32 320.421875 33.789062 323.320312 36.679688 C 326.210938 39.578125 328 43.578125 328 48" fill="#b9b9b9"/></g><g id="change9_8"><path d="M 440 48 L 440 72 C 440 80.839844 432.839844 88 424 88 C 415.160156 88 408 80.839844 408 72 L 408 48 C 408 39.160156 415.160156 32 424 32 C 428.421875 32 432.421875 33.789062 435.320312 36.679688 C 438.210938 39.578125 440 43.578125 440 48" fill="#b9b9b9"/></g><g id="change6_7"><path d="M 104 48 L 104 72 C 104 80.839844 96.839844 88 88 88 C 79.160156 88 72 80.839844 72 72 L 72 48 C 72 39.160156 79.160156 32 88 32 C 92.417969 32 96.417969 33.789062 99.320312 36.679688 C 102.210938 39.578125 104 43.578125 104 48" fill="#cbcbcb"/></g><g id="change6_8"><path d="M 216 48 L 216 72 C 216 80.839844 208.839844 88 200 88 C 191.160156 88 184 80.839844 184 72 L 184 48 C 184 39.160156 191.160156 32 200 32 C 204.421875 32 208.421875 33.789062 211.320312 36.679688 C 214.210938 39.578125 216 43.578125 216 48" fill="#cbcbcb"/></g><g id="change6_9"><path d="M 328 48 L 328 72 C 328 80.839844 320.839844 88 312 88 C 303.160156 88 296 80.839844 296 72 L 296 48 C 296 39.160156 303.160156 32 312 32 C 316.421875 32 320.421875 33.789062 323.320312 36.679688 C 326.210938 39.578125 328 43.578125 328 48" fill="#cbcbcb"/></g><g id="change6_10"><path d="M 440 48 L 440 72 C 440 80.839844 432.839844 88 424 88 C 415.160156 88 408 80.839844 408 72 L 408 48 C 408 39.160156 415.160156 32 424 32 C 428.421875 32 432.421875 33.789062 435.320312 36.679688 C 438.210938 39.578125 440 43.578125 440 48" fill="#cbcbcb"/></g></g></svg>