<?xml version="1.0" encoding="UTF-8"?><svg xmlns="http://www.w3.org/2000/svg" xmlns:xlink="http://www.w3.org/1999/xlink" height="3296.0" preserveAspectRatio="xMidYMid meet" version="1.0" viewBox="-26.9 -70.0 2540.0 3296.0" width="2540.0" zoomAndPan="magnify"><defs><clipPath id="a"><path d="M 4 1971 L 1094 1971 L 1094 3225.980469 L 4 3225.980469 Z M 4 1971"/></clipPath><clipPath id="b"><path d="M 992 1971 L 2510.859375 1971 L 2510.859375 3225.980469 L 992 3225.980469 Z M 992 1971"/></clipPath><clipPath id="c"><path d="M 4 2119 L 1094 2119 L 1094 3225.980469 L 4 3225.980469 Z M 4 2119"/></clipPath><clipPath id="d"><path d="M 992 2843 L 2420 2843 L 2420 3225.980469 L 992 3225.980469 Z M 992 2843"/></clipPath></defs><g><g><path d="M 13.496094 1554.605469 C 13.496094 1554.605469 10.511719 1750.28125 213.644531 1893.671875 C 213.644531 1893.671875 288.824219 1944.453125 385.914062 1973.332031 L 467.566406 1997.230469 L 1855.164062 2059.460938 L 2125 1975.820312 C 2125 1975.820312 2323.667969 1916.570312 2411.296875 1782.140625 C 2411.296875 1782.140625 2478.507812 1693.019531 2497.925781 1591.449219 L 13.496094 1554.605469" fill="#c6c7cb"/></g><g><path d="M 519.539062 1913.25 C 496.953125 1913.25 436.875 1911.71875 366.921875 1897.558594 C 274.355469 1878.828125 200.457031 1845.511719 147.238281 1798.507812 C 130.648438 1785.359375 25.917969 1696.957031 2.066406 1543.214844 L 1.988281 1542.722656 C 0.714844 1533.925781 -26.933594 1325.96875 171.914062 1173.171875 C 185.730469 1161.773438 263.035156 1103.914062 420.664062 1093.085938 L 421.546875 1093.023438 L 681.742188 1084.011719 L 1836.730469 1084.011719 L 2095.015625 1093.730469 C 2104.675781 1093.992188 2195.789062 1097.550781 2289.710938 1143.132812 C 2382.273438 1188.023438 2494.972656 1282.3125 2507.050781 1476.621094 C 2508.605469 1490.023438 2513.089844 1545.988281 2490.765625 1615.90625 C 2468.324219 1686.148438 2413.46875 1784.398438 2279.496094 1853.578125 C 2275.617188 1855.589844 2179.507812 1904.980469 2065.269531 1904.980469 L 2063.128906 1904.980469 L 1738.035156 1910.199219 L 526.472656 1913.1875 C 525.355469 1913.207031 523 1913.25 519.539062 1913.25" fill="#e8e8e8"/></g><g><path d="M 53.828125 1535.191406 C 53.828125 1535.191406 26.941406 1349.972656 204.683594 1214.054688 C 204.683594 1214.054688 271.898438 1155.8125 424.25 1145.355469 L 682.652344 1136.394531 L 1835.746094 1136.394531 L 2093.394531 1146.101562 C 2093.394531 1146.101562 2435.4375 1152.078125 2454.851562 1481.425781 C 2454.851562 1481.425781 2483.988281 1689.046875 2255.460938 1807.039062 C 2255.460938 1807.039062 2166.585938 1853.339844 2062.777344 1852.589844 L 1737.910156 1857.820312 L 525.816406 1860.808594 C 525.816406 1860.808594 302.269531 1866.78125 180.789062 1758.242188 C 180.789062 1758.242188 76.230469 1679.582031 53.828125 1535.191406" fill="#e0e0e2"/></g><g><path d="M 519.539062 1854.578125 C 482.554688 1854.578125 292.59375 1849.707031 184.976562 1753.558594 L 184.78125 1753.378906 L 184.570312 1753.214844 C 183.542969 1752.445312 81.765625 1674.246094 60.039062 1534.226562 C 59.984375 1533.832031 53.683594 1488.023438 68.84375 1426.53125 C 82.796875 1369.933594 118.355469 1287.984375 208.503906 1219.050781 L 208.800781 1218.8125 C 209.453125 1218.253906 276.566406 1161.808594 424.578125 1151.625 L 682.757812 1142.675781 L 1835.632812 1142.675781 L 2093.171875 1152.378906 C 2094.132812 1152.394531 2178.78125 1154.394531 2264.496094 1196.09375 C 2314.539062 1220.4375 2355.183594 1253.382812 2385.296875 1294.027344 C 2422.941406 1344.839844 2444.242188 1408.003906 2448.59375 1481.785156 L 2448.609375 1482.042969 L 2448.640625 1482.285156 C 2448.714844 1482.796875 2455.464844 1534 2434.691406 1598.640625 C 2415.558594 1658.144531 2368.4375 1741.617188 2252.578125 1801.449219 C 2251.691406 1801.90625 2165.175781 1846.308594 2065.273438 1846.316406 L 2062.832031 1846.308594 L 1737.804688 1851.527344 L 525.800781 1854.515625 C 525.601562 1854.515625 523.460938 1854.578125 519.539062 1854.578125" fill="#c4c4c6"/></g><g><path d="M 1029.167969 1736.183594 C 1026.875 1737.566406 1024.558594 1738.933594 1022.207031 1740.3125 C 1022.207031 1740.3125 676.679688 1828.945312 399.855469 1824.96875 C 399.855469 1824.96875 138.957031 1761.21875 170.824219 1551.128906 L 207.679688 1418.691406 C 207.679688 1418.691406 225.511719 1338.632812 280.929688 1269.019531 C 313.363281 1228.320312 358.640625 1191.175781 420.769531 1175.726562 L 683.636719 1161.796875 L 881.804688 1167.761719 C 881.804688 1167.761719 1180.527344 1185.691406 1197.457031 1450.566406 C 1197.457031 1450.566406 1232.507812 1613.15625 1029.167969 1736.183594" fill="#b8b9bd"/></g><g><path d="M 686.636719 1355.441406 C 686.636719 1355.441406 684.898438 1432.496094 567.648438 1435.121094 C 567.648438 1435.121094 565.949219 1435.277344 562.910156 1435.464844 C 539.402344 1436.78125 435.960938 1438.28125 425.378906 1361.542969 L 420.769531 1252.882812 L 419.28125 933.738281 L 416.789062 676.839844 L 417.375 677.011719 L 443.753906 684.503906 L 690.597656 754.785156 L 687.140625 836.917969 L 683.640625 1101.277344 C 683.640625 1101.277344 683.914062 1103.625 684.351562 1107.863281 L 683.640625 1161.785156 C 683.640625 1161.785156 688.6875 1205.652344 690.425781 1255.636719 C 691.664062 1290.164062 691.308594 1327.589844 686.636719 1355.441406" fill="#adadad"/></g><g><path d="M 686.636719 1355.449219 C 686.636719 1355.449219 684.894531 1432.503906 567.644531 1435.121094 C 567.644531 1435.121094 565.949219 1435.277344 562.910156 1435.480469 C 559.496094 1435.277344 555.890625 1435.011719 552.160156 1434.652344 C 512.980469 1430.785156 459.699219 1415.460938 452.257812 1361.558594 L 451.691406 1348.351562 L 447.648438 1252.898438 L 446.164062 933.75 L 443.816406 691.96875 L 443.753906 684.515625 L 690.59375 754.789062 L 687.136719 836.925781 L 683.636719 1101.285156 C 683.636719 1101.285156 683.910156 1103.640625 684.351562 1107.863281 L 683.636719 1161.796875 C 683.636719 1161.796875 688.6875 1205.65625 690.425781 1255.644531 C 691.664062 1290.179688 691.308594 1327.585938 686.636719 1355.449219" fill="#909091"/></g><g><path d="M 664.28125 1255.636719 C 665.515625 1290.164062 665.160156 1327.582031 660.488281 1355.441406 C 660.488281 1355.441406 658.851562 1427.761719 552.164062 1434.648438 C 512.984375 1430.777344 459.699219 1415.449219 452.261719 1361.550781 L 447.652344 1252.882812 L 446.164062 933.738281 L 443.816406 691.964844 L 664.449219 754.789062 L 666.960938 755.488281 L 660.992188 897.40625 L 658.203125 1107.855469 L 657.492188 1161.785156 C 657.492188 1161.785156 662.542969 1205.65625 664.28125 1255.636719" fill="#a2a2a5"/></g><g><path d="M 564.394531 1374.871094 C 549.625 1375.839844 488.046875 1377.890625 451.691406 1348.347656 C 438.261719 1337.433594 428.289062 1322.21875 425.375 1301.0625 L 420.769531 1192.410156 L 419.277344 873.257812 L 417.371094 677.019531 L 443.753906 684.523438 L 447.335938 685.542969 L 449.160156 873.257812 L 450.644531 1192.410156 L 455.253906 1301.0625 C 458.167969 1322.21875 468.140625 1337.433594 481.574219 1348.347656 C 505.121094 1367.488281 539.253906 1373.355469 564.394531 1374.871094" fill="#c4c4c6"/></g><g><path d="M 690.425781 1255.644531 C 689.796875 1269.828125 688.601562 1283.230469 686.632812 1294.96875 C 686.632812 1294.96875 686.046875 1321.261719 662.164062 1343.65625 C 645.167969 1359.585938 616.398438 1373.550781 567.644531 1374.640625 C 567.644531 1374.640625 566.492188 1374.734375 564.398438 1374.859375 C 539.253906 1373.347656 505.121094 1367.488281 481.570312 1348.347656 C 468.140625 1337.4375 458.167969 1322.226562 455.253906 1301.0625 L 450.644531 1192.398438 L 449.160156 873.253906 L 447.335938 685.542969 L 690.59375 754.789062 L 687.136719 836.925781 L 683.636719 1101.285156 C 683.636719 1101.285156 683.910156 1103.640625 684.351562 1107.863281 C 686.550781 1129.214844 693.023438 1198.601562 690.425781 1255.644531" fill="#e1e2e6"/></g><g><path d="M 892.679688 200.410156 C 815.808594 133.8125 744.632812 106.519531 744.632812 106.519531 C 494.710938 -10.984375 354.308594 126.449219 354.308594 126.449219 C 181.03125 267.839844 221.867188 467.988281 221.867188 467.988281 C 232.28125 531.402344 266.410156 587.925781 307.101562 634.988281 C 244.054688 579.710938 178.074219 501.734375 162.863281 408.992188 C 162.863281 408.992188 122.027344 208.820312 295.304688 67.449219 C 295.304688 67.449219 435.707031 -69.980469 685.628906 47.519531 C 685.628906 47.519531 797.828125 90.566406 892.679688 200.410156" fill="#e3e3e5"/></g><g><path d="M 990.84375 363.195312 L 689.632812 787.363281 C 689.632812 787.363281 608.964844 820.238281 433.714844 724.644531 C 433.714844 724.644531 371.96875 691.847656 307.101562 634.988281 C 266.410156 587.925781 232.28125 531.402344 221.867188 467.988281 C 221.867188 467.988281 181.03125 267.839844 354.308594 126.449219 C 354.308594 126.449219 494.710938 -10.984375 744.632812 106.519531 C 744.632812 106.519531 815.808594 133.8125 892.679688 200.410156 C 896.726562 205.082031 900.726562 209.890625 904.707031 214.816406 C 904.707031 214.816406 960.964844 290.003906 990.84375 363.195312" fill="#f6f7fb"/></g><g><path d="M 258.457031 230.492188 L 486.238281 372.382812 C 486.238281 372.382812 539.261719 376.867188 557.933594 338.023438 C 557.933594 338.023438 577.722656 305.164062 559.238281 273.246094 L 483.996094 219.277344 L 329.40625 123.683594 C 329.40625 123.683594 294.304688 117.714844 264.429688 150.574219 C 234.558594 183.429688 250.613281 220.785156 250.613281 220.785156 L 258.457031 230.492188" fill="#444446"/></g><g><path d="M 275.257812 221.152344 L 380.933594 284.636719 C 380.933594 284.636719 416.035156 302.558594 438.4375 277.164062 C 452.492188 261.238281 456.554688 244.585938 457.632812 234.378906 C 458.242188 228.601562 455.445312 222.996094 450.542969 219.878906 L 326.789062 141.246094 C 326.789062 141.246094 292.0625 127.804688 266.671875 165.898438 C 241.28125 203.988281 275.257812 221.152344 275.257812 221.152344" fill="#4a4a4a"/></g><g><path d="M 699.828125 1866.773438 L 700.574219 1827.949219 L 1089.671875 1752.523438 L 1414.539062 1751.765625 L 1790.9375 1822.71875 C 1790.9375 1822.71875 1811.851562 1821.230469 1813.34375 1854.824219 L 699.828125 1866.773438" fill="#d2d3d7"/></g><g><path d="M 1131.5 733.859375 C 1131.5 733.859375 1035.890625 917.558594 819.328125 870.535156 C 819.328125 870.535156 652.777344 821.984375 642.320312 700.25 C 642.320312 700.25 641.941406 679.550781 643.117188 654.964844 C 659.167969 771.566406 819.328125 818.246094 819.328125 818.246094 C 1035.890625 865.289062 1131.5 681.585938 1131.5 681.585938 C 1162.378906 635.332031 1176.210938 591.425781 1180.320312 552.46875 C 1185.507812 602.183594 1177.199219 665.464844 1131.5 733.859375" fill="#ccccce"/></g><g><path d="M 1180.316406 552.460938 L 1180.316406 552.476562 C 1176.207031 591.417969 1162.378906 635.347656 1131.496094 681.578125 C 1131.496094 681.578125 1035.886719 865.292969 819.328125 818.253906 C 819.328125 818.253906 659.164062 771.574219 643.117188 654.976562 C 644.246094 630.875 646.867188 603.019531 652.777344 587.230469 C 652.777344 587.230469 740.398438 346.257812 905.691406 310.410156 C 905.691406 310.410156 1061.039062 298.46875 1143.6875 445.832031 C 1143.6875 445.832031 1173.507812 487.605469 1180.316406 552.460938" fill="#ececee"/></g><g><path d="M 692.359375 1852.59375 L 692.359375 1939.214844 C 692.359375 1939.214844 701.320312 1966.113281 749.117188 1967.597656 L 1567.640625 1966.113281 L 1763.042969 1967.355469 C 1763.042969 1967.355469 1814.832031 1961.882812 1816.328125 1943.457031 L 1819.308594 1854.835938 L 692.359375 1852.59375" fill="#7d7e82"/></g><g><path d="M 939.558594 1860.058594 L 944.785156 1967.601562 L 1566.140625 1969.101562 L 1570.621094 1858.570312 L 939.558594 1860.058594" fill="#b2b3b7"/></g><g clip-path="url(#a)"><path d="M 1093.828125 3225.019531 L 884.789062 3225.980469 L 564.148438 3223.007812 C 564.148438 3223.007812 258.449219 3216.039062 92.171875 2948.179688 C 92.171875 2948.179688 15.480469 2832.679688 6.539062 2657.421875 L 4.957031 2119.550781 L 4.527344 1971.328125 L 318.183594 1971.328125 L 319.183594 2310.039062 L 320.195312 2657.421875 C 329.140625 2832.679688 405.828125 2948.179688 405.828125 2948.179688 C 572.109375 3216.039062 877.804688 3223.007812 877.804688 3223.007812 L 992.308594 3224.070312 L 1093.828125 3225.019531" fill="#f2f2f4"/></g><g clip-path="url(#b)"><path d="M 2510.867188 1971.324219 L 2510.867188 2637.488281 C 2510.867188 2637.488281 2499.085938 2804.539062 2419.554688 2944.578125 C 2395.816406 2986.4375 2365.992188 3025.878906 2328.652344 3057.730469 C 2328.652344 3057.730469 2214.15625 3196.128906 1954.242188 3221.03125 L 1093.835938 3225.019531 L 992.3125 3224.070312 L 1649.53125 3221.03125 C 1909.429688 3196.128906 2023.929688 3057.730469 2023.929688 3057.730469 C 2090.722656 3000.78125 2133.421875 2919.527344 2160.503906 2843.648438 C 2199.273438 2735.089844 2206.160156 2637.488281 2206.160156 2637.488281 L 2206.160156 1971.324219 L 2510.867188 1971.324219" fill="#dbdbdd"/></g><g><path d="M 2206.15625 1971.324219 L 2206.15625 2637.496094 C 2206.15625 2637.496094 2186.261719 2919.308594 2023.9375 3057.71875 C 2023.9375 3057.71875 1909.421875 3196.128906 1649.527344 3221.019531 L 992.3125 3224.078125 L 877.808594 3223.007812 C 877.808594 3223.007812 572.109375 3216.039062 405.828125 2948.179688 C 405.828125 2948.179688 329.144531 2832.667969 320.195312 2657.417969 L 318.1875 1971.324219 L 2206.15625 1971.324219" fill="#e7e8ec"/></g><g><path d="M 1809.820312 1971.328125 C 1798.117188 2037.59375 1743.148438 2031.085938 1743.148438 2031.085938 L 762.316406 2031.085938 C 715.109375 2030.230469 705.722656 1985.164062 703.941406 1971.328125 L 1809.820312 1971.328125" fill="#f1f2f6"/></g><g><path d="M 1805.011719 1971.328125 C 1787.570312 2018.4375 1743.132812 2013.15625 1743.132812 2013.15625 L 762.3125 2013.15625 C 728.683594 2012.578125 714.246094 1989.523438 708.109375 1971.328125 L 1805.011719 1971.328125" fill="#d6d6d8"/></g><g><path d="M 1099.378906 609.125 C 1099.378906 609.125 1084.4375 730.871094 1005.277344 761.492188 C 1005.277344 761.492188 981.414062 772.496094 966.011719 763.210938 C 960.753906 760.070312 956.480469 754.535156 954.492188 745.429688 C 954.492188 745.429688 953.378906 704.738281 970.183594 677.472656 C 970.183594 677.472656 990.089844 637.894531 997.316406 627.070312 C 997.316406 627.070312 1028.367188 583.824219 1057.15625 567.285156 C 1062.417969 564.273438 1067.585938 562.160156 1072.496094 561.339844 C 1072.496094 561.339844 1109.828125 556.855469 1099.378906 609.125" fill="#6f7072"/></g><g><path d="M 1064.527344 609.125 C 1064.527344 609.125 1049.597656 730.871094 970.4375 761.503906 C 970.4375 761.503906 968.757812 762.269531 966.015625 763.214844 C 960.753906 760.066406 956.480469 754.539062 954.492188 745.417969 C 954.492188 745.417969 953.378906 704.738281 970.183594 677.484375 C 970.183594 677.484375 990.089844 637.898438 997.316406 627.066406 C 997.316406 627.066406 1028.367188 583.828125 1057.160156 567.285156 C 1064.160156 573.339844 1069.289062 585.375 1064.527344 609.125" fill="#4b4c4c"/></g><g><path d="M 418.195312 1825.082031 C 412.050781 1825.082031 405.941406 1825.046875 399.859375 1824.964844 C 399.859375 1824.964844 168.15625 1768.34375 168.128906 1586 C 168.125 1574.84375 168.992188 1563.222656 170.824219 1551.132812 L 207.683594 1418.683594 C 207.683594 1418.683594 225.511719 1338.628906 280.933594 1269.019531 C 412.324219 1444.328125 638.90625 1629.808594 1029.171875 1736.179688 C 1026.882812 1737.5625 1024.5625 1738.929688 1022.210938 1740.308594 C 1022.210938 1740.308594 691.695312 1825.082031 418.195312 1825.082031" fill="#939497"/></g><g><path d="M 1440.582031 1736.179688 C 1442.871094 1737.566406 1445.1875 1738.9375 1447.53125 1740.3125 C 1447.53125 1740.3125 1793.0625 1828.941406 2069.882812 1824.960938 C 2069.882812 1824.960938 2330.785156 1761.21875 2298.914062 1551.132812 L 2262.0625 1418.691406 C 2262.0625 1418.691406 2244.230469 1338.628906 2188.824219 1269.019531 C 2156.378906 1228.3125 2111.089844 1191.175781 2048.976562 1175.71875 L 1786.109375 1161.789062 L 1587.9375 1167.765625 C 1587.9375 1167.765625 1289.21875 1185.683594 1272.289062 1450.566406 C 1272.289062 1450.566406 1237.238281 1613.148438 1440.582031 1736.179688" fill="#b8b9bd"/></g><g><path d="M 1783.117188 1355.441406 C 1783.117188 1355.441406 1784.851562 1432.496094 1902.097656 1435.121094 C 1902.097656 1435.121094 1903.800781 1435.277344 1906.851562 1435.464844 C 1930.355469 1436.78125 2033.792969 1438.28125 2044.378906 1361.542969 L 2048.976562 1252.882812 L 2050.480469 933.738281 L 2052.964844 676.839844 L 2052.371094 677.011719 L 2025.988281 684.503906 L 1779.160156 754.785156 L 1782.617188 836.917969 L 1786.117188 1101.277344 C 1786.117188 1101.277344 1785.835938 1103.625 1785.398438 1107.863281 L 1786.117188 1161.785156 C 1786.117188 1161.785156 1781.066406 1205.652344 1779.316406 1255.636719 C 1778.082031 1290.164062 1778.441406 1327.589844 1783.117188 1355.441406" fill="#adadad"/></g><g><path d="M 1783.109375 1355.449219 C 1783.109375 1355.449219 1784.839844 1432.503906 1902.089844 1435.121094 C 1902.089844 1435.121094 1903.789062 1435.277344 1906.832031 1435.480469 C 1910.246094 1435.277344 1913.863281 1435.011719 1917.589844 1434.652344 C 1956.769531 1430.785156 2010.046875 1415.460938 2017.484375 1361.558594 L 2018.046875 1348.351562 L 2022.101562 1252.898438 L 2023.582031 933.75 L 2025.921875 691.96875 L 2025.984375 684.515625 L 1779.148438 754.789062 L 1782.609375 836.925781 L 1786.101562 1101.285156 C 1786.101562 1101.285156 1785.839844 1103.640625 1785.402344 1107.863281 L 1786.101562 1161.796875 C 1786.101562 1161.796875 1781.050781 1205.65625 1779.320312 1255.644531 C 1778.074219 1290.179688 1778.433594 1327.585938 1783.109375 1355.449219" fill="#909091"/></g><g><path d="M 1805.476562 1255.636719 C 1804.234375 1290.164062 1804.589844 1327.582031 1809.269531 1355.441406 C 1809.269531 1355.441406 1810.902344 1427.761719 1917.597656 1434.648438 C 1956.773438 1430.777344 2010.046875 1415.449219 2017.496094 1361.550781 L 2022.113281 1252.882812 L 2023.589844 933.738281 L 2025.9375 691.964844 L 1805.304688 754.789062 L 1802.789062 755.488281 L 1808.757812 897.40625 L 1811.554688 1107.855469 L 1812.269531 1161.785156 C 1812.269531 1161.785156 1807.21875 1205.65625 1805.476562 1255.636719" fill="#a2a2a5"/></g><g><path d="M 1905.339844 1374.871094 C 1920.117188 1375.839844 1981.699219 1377.890625 2018.042969 1348.347656 C 2031.476562 1337.433594 2041.453125 1322.21875 2044.359375 1301.0625 L 2048.972656 1192.410156 L 2050.460938 873.257812 L 2052.367188 677.019531 L 2025.988281 684.523438 L 2022.40625 685.542969 L 2020.589844 873.257812 L 2019.089844 1192.410156 L 2014.492188 1301.0625 C 2011.570312 1322.21875 2001.605469 1337.433594 1988.160156 1348.347656 C 1964.609375 1367.488281 1930.488281 1373.355469 1905.339844 1374.871094" fill="#c4c4c6"/></g><g><path d="M 1779.320312 1255.644531 C 1779.941406 1269.828125 1781.140625 1283.230469 1783.105469 1294.96875 C 1783.105469 1294.96875 1783.699219 1321.261719 1807.589844 1343.65625 C 1824.578125 1359.585938 1853.351562 1373.550781 1902.101562 1374.640625 C 1902.101562 1374.640625 1903.238281 1374.734375 1905.34375 1374.859375 C 1930.480469 1373.347656 1964.613281 1367.488281 1988.164062 1348.347656 C 2001.597656 1337.4375 2011.574219 1322.226562 2014.488281 1301.0625 L 2019.101562 1192.398438 L 2020.582031 873.253906 L 2022.40625 685.542969 L 1779.148438 754.789062 L 1782.605469 836.925781 L 1786.113281 1101.285156 C 1786.113281 1101.285156 1785.832031 1103.640625 1785.398438 1107.863281 C 1783.199219 1129.214844 1776.714844 1198.601562 1779.320312 1255.644531" fill="#e1e2e6"/></g><g><path d="M 1577.070312 200.410156 C 1653.941406 133.8125 1725.121094 106.519531 1725.121094 106.519531 C 1975.039062 -10.984375 2115.445312 126.449219 2115.445312 126.449219 C 2288.71875 267.839844 2247.886719 467.988281 2247.886719 467.988281 C 2237.476562 531.402344 2203.335938 587.925781 2162.644531 634.988281 C 2225.679688 579.710938 2291.664062 501.734375 2306.886719 408.992188 C 2306.886719 408.992188 2347.714844 208.820312 2174.441406 67.449219 C 2174.441406 67.449219 2034.042969 -69.980469 1784.121094 47.519531 C 1784.121094 47.519531 1671.921875 90.566406 1577.070312 200.410156" fill="#e3e3e5"/></g><g><path d="M 1478.898438 363.195312 L 1780.121094 787.363281 C 1780.121094 787.363281 1860.78125 820.238281 2036.019531 724.644531 C 2036.019531 724.644531 2097.769531 691.847656 2162.644531 634.988281 C 2203.335938 587.925781 2237.476562 531.402344 2247.886719 467.988281 C 2247.886719 467.988281 2288.71875 267.839844 2115.445312 126.449219 C 2115.445312 126.449219 1975.039062 -10.984375 1725.121094 106.519531 C 1725.121094 106.519531 1653.941406 133.8125 1577.070312 200.410156 C 1573.019531 205.082031 1569.019531 209.890625 1565.039062 214.816406 C 1565.039062 214.816406 1508.78125 290.003906 1478.898438 363.195312" fill="#f6f7fb"/></g><g><path d="M 2211.289062 230.492188 L 1983.511719 372.382812 C 1983.511719 372.382812 1930.5 376.867188 1911.828125 338.023438 C 1911.828125 338.023438 1892.035156 305.164062 1910.515625 273.246094 L 1985.761719 219.277344 L 2140.355469 123.683594 C 2140.355469 123.683594 2175.441406 117.714844 2205.324219 150.574219 C 2235.203125 183.429688 2219.128906 220.785156 2219.128906 220.785156 L 2211.289062 230.492188" fill="#444446"/></g><g><path d="M 2194.496094 221.152344 L 2088.816406 284.636719 C 2088.816406 284.636719 2053.707031 302.558594 2031.320312 277.164062 C 2017.253906 261.238281 2013.1875 244.585938 2012.101562 234.378906 C 2011.511719 228.601562 2014.308594 222.996094 2019.191406 219.878906 L 2142.964844 141.246094 C 2142.964844 141.246094 2177.675781 127.804688 2203.085938 165.898438 C 2228.460938 203.988281 2194.496094 221.152344 2194.496094 221.152344" fill="#4a4a4a"/></g><g><path d="M 1338.25 733.859375 C 1338.25 733.859375 1433.859375 917.558594 1650.425781 870.535156 C 1650.425781 870.535156 1816.96875 821.984375 1827.433594 700.25 C 1827.433594 700.25 1827.796875 679.550781 1826.628906 654.964844 C 1810.574219 771.566406 1650.425781 818.246094 1650.425781 818.246094 C 1433.859375 865.289062 1338.25 681.585938 1338.25 681.585938 C 1307.359375 635.332031 1293.539062 591.425781 1289.429688 552.46875 C 1284.230469 602.183594 1292.550781 665.464844 1338.25 733.859375" fill="#ccccce"/></g><g><path d="M 1289.425781 552.460938 L 1289.425781 552.476562 C 1293.539062 591.417969 1307.359375 635.347656 1338.25 681.578125 C 1338.25 681.578125 1433.859375 865.292969 1650.417969 818.253906 C 1650.417969 818.253906 1810.585938 771.574219 1826.625 654.976562 C 1825.492188 630.875 1822.871094 603.019531 1816.960938 587.230469 C 1816.960938 587.230469 1729.347656 346.257812 1564.046875 310.410156 C 1564.046875 310.410156 1408.707031 298.46875 1326.046875 445.832031 C 1326.046875 445.832031 1296.238281 487.605469 1289.425781 552.460938" fill="#ececee"/></g><g><path d="M 1370.367188 609.125 C 1370.367188 609.125 1385.308594 730.871094 1464.46875 761.492188 C 1464.46875 761.492188 1488.328125 772.496094 1503.726562 763.210938 C 1508.988281 760.070312 1513.265625 754.535156 1515.257812 745.429688 C 1515.257812 745.429688 1516.367188 704.738281 1499.558594 677.472656 C 1499.558594 677.472656 1479.65625 637.894531 1472.425781 627.070312 C 1472.425781 627.070312 1441.375 583.824219 1412.585938 567.285156 C 1407.328125 564.273438 1402.148438 562.160156 1397.246094 561.339844 C 1397.246094 561.339844 1359.90625 556.855469 1370.367188 609.125" fill="#6f7072"/></g><g><path d="M 1405.207031 609.125 C 1405.207031 609.125 1420.148438 730.871094 1499.308594 761.503906 C 1499.308594 761.503906 1500.988281 762.269531 1503.726562 763.214844 C 1508.988281 760.066406 1513.269531 754.539062 1515.257812 745.417969 C 1515.257812 745.417969 1516.367188 704.738281 1499.558594 677.484375 C 1499.558594 677.484375 1479.65625 637.898438 1472.429688 627.066406 C 1472.429688 627.066406 1441.378906 583.828125 1412.589844 567.285156 C 1405.585938 573.339844 1400.457031 585.375 1405.207031 609.125" fill="#4b4c4c"/></g><g><path d="M 2051.554688 1825.085938 C 1778.054688 1825.085938 1447.539062 1740.300781 1447.539062 1740.300781 C 1445.195312 1738.933594 1442.878906 1737.5625 1440.578125 1736.179688 C 1830.851562 1629.808594 2057.425781 1444.324219 2188.832031 1269.019531 C 2244.238281 1338.617188 2262.074219 1418.683594 2262.074219 1418.683594 L 2298.929688 1551.132812 C 2300.765625 1563.230469 2301.625 1574.851562 2301.625 1585.996094 C 2301.597656 1768.34375 2069.894531 1824.957031 2069.894531 1824.957031 C 2063.808594 1825.046875 2057.710938 1825.085938 2051.554688 1825.085938" fill="#939497"/></g><g><path d="M 684.003906 3178.359375 C 626.691406 3155.417969 563.773438 3120.71875 505.796875 3068.238281 C 563.773438 3120.710938 626.691406 3155.410156 684.003906 3178.359375 M 382.464844 2905.269531 C 361.179688 2860.851562 331.679688 2784.25 322.320312 2686.398438 C 331.683594 2784.25 361.179688 2860.851562 382.464844 2905.269531" fill="#e5e5e5"/></g><g clip-path="url(#c)"><path d="M 884.789062 3225.980469 L 564.148438 3223.007812 C 564.148438 3223.007812 258.449219 3216.039062 92.171875 2948.179688 C 92.171875 2948.179688 15.480469 2832.679688 6.539062 2657.421875 L 4.957031 2119.550781 C 88.246094 2181.300781 191.410156 2246.109375 319.179688 2310.039062 L 320.195312 2657.421875 C 320.699219 2667.269531 321.417969 2676.941406 322.320312 2686.398438 C 331.679688 2784.25 361.179688 2860.851562 382.464844 2905.269531 C 395.746094 2932.988281 405.828125 2948.179688 405.828125 2948.179688 C 435.546875 2996.050781 469.714844 3035.589844 505.796875 3068.238281 C 563.773438 3120.71875 626.691406 3155.417969 684.003906 3178.359375 C 790.601562 3221.03125 877.804688 3223.007812 877.804688 3223.007812 L 992.3125 3224.078125 L 992.886719 3224.078125 L 1093.828125 3225.019531 L 884.789062 3225.980469" fill="#d9d9db"/></g><g><path d="M 1337.945312 3222.46875 L 1649.527344 3221.019531 C 1909.417969 3196.128906 2023.925781 3057.71875 2023.925781 3057.71875 C 2073.9375 3015.070312 2110.429688 2958.820312 2136.984375 2901.390625 C 2110.429688 2958.820312 2073.925781 3015.089844 2023.925781 3057.730469 C 2023.925781 3057.730469 1909.417969 3196.128906 1649.527344 3221.03125 L 1337.945312 3222.46875 M 2137.007812 2901.339844 C 2137.0625 2901.21875 2137.113281 2901.109375 2137.167969 2900.980469 C 2137.113281 2901.101562 2137.0625 2901.21875 2137.007812 2901.339844 M 2137.296875 2900.710938 C 2137.3125 2900.679688 2137.324219 2900.648438 2137.335938 2900.621094 C 2137.324219 2900.648438 2137.3125 2900.679688 2137.296875 2900.710938" fill="#e5e5e5"/></g><g clip-path="url(#d)"><path d="M 1093.832031 3225.019531 L 992.890625 3224.078125 L 1337.953125 3222.46875 L 1649.527344 3221.03125 C 1909.429688 3196.128906 2023.9375 3057.730469 2023.9375 3057.730469 C 2073.929688 3015.089844 2110.429688 2958.820312 2136.988281 2901.386719 C 2137.003906 2901.378906 2137.003906 2901.359375 2137.015625 2901.339844 C 2137.0625 2901.21875 2137.121094 2901.097656 2137.179688 2900.980469 C 2137.226562 2900.890625 2137.269531 2900.800781 2137.300781 2900.707031 C 2137.3125 2900.679688 2137.328125 2900.648438 2137.34375 2900.621094 C 2146.117188 2881.597656 2153.789062 2862.46875 2160.5 2843.648438 C 2259.167969 2877.371094 2344.964844 2911.238281 2419.554688 2944.578125 C 2395.820312 2986.441406 2366 3025.878906 2328.652344 3057.730469 C 2328.652344 3057.730469 2214.144531 3196.128906 1954.230469 3221.03125 L 1093.832031 3225.019531" fill="#c5c5c6"/></g><g><path d="M 992.308594 3224.078125 L 877.804688 3223.007812 C 877.804688 3223.007812 790.597656 3221.03125 684 3178.359375 C 626.691406 3155.410156 563.773438 3120.710938 505.796875 3068.242188 C 469.714844 3035.589844 435.542969 2996.050781 405.828125 2948.179688 C 405.828125 2948.179688 395.742188 2932.992188 382.464844 2905.269531 C 361.175781 2860.851562 331.683594 2784.25 322.320312 2686.402344 C 321.417969 2676.941406 320.699219 2667.269531 320.195312 2657.421875 L 319.175781 2310.042969 C 319.1875 2310.042969 319.171875 2310.042969 319.179688 2310.042969 C 566.328125 2433.710938 905.574219 2554.132812 1371.3125 2642.839844 C 1698.894531 2705.242188 1957.039062 2774.132812 2160.484375 2843.652344 C 2153.777344 2862.472656 2146.101562 2881.601562 2137.328125 2900.621094 C 2137.328125 2900.652344 2137.300781 2900.679688 2137.289062 2900.710938 C 2137.25 2900.800781 2137.207031 2900.890625 2137.167969 2900.980469 C 2137.117188 2901.109375 2137.050781 2901.222656 2137.011719 2901.339844 C 2136.996094 2901.363281 2136.984375 2901.382812 2136.96875 2901.390625 C 2110.421875 2958.820312 2073.929688 3015.070312 2023.921875 3057.722656 C 2023.921875 3057.722656 1909.417969 3196.128906 1649.523438 3221.019531 L 1337.949219 3222.46875 L 992.886719 3224.078125 L 992.308594 3224.078125" fill="#cfd0d4"/></g></g></svg>