<?xml version="1.0" encoding="UTF-8"?><svg xmlns="http://www.w3.org/2000/svg" xmlns:xlink="http://www.w3.org/1999/xlink" height="503.2" preserveAspectRatio="xMidYMid meet" version="1.0" viewBox="-1.9 0.0 380.1 503.2" width="380.1" zoomAndPan="magnify"><defs><clipPath id="a"><path d="M 0 0 L 378.191406 0 L 378.191406 476 L 0 476 Z M 0 0"/></clipPath></defs><g><g id="change1_1"><path d="M 121.925781 30.171875 C 138.210938 18.878906 157.90625 10.464844 180.238281 5.730469 C 150.652344 2.835938 119.328125 10.789062 95.691406 22.921875 C 47.691406 47.574219 16.984375 96.683594 4.964844 164.027344 C -1.882812 202.394531 9.003906 242.003906 18.613281 276.945312 C 23.914062 296.222656 28.257812 314.835938 29.140625 328.738281 C 29.96875 341.765625 26.15625 353.472656 22.46875 364.789062 C 18.824219 375.988281 15.378906 386.566406 16.058594 398.351562 C 17.636719 425.816406 34.574219 455.628906 58.40625 465.953125 C 68.265625 467.335938 78.210938 465.546875 88.421875 458.484375 C 104.535156 447.335938 106.9375 427.390625 104.96875 409.246094 C 100.648438 369.507812 69.183594 339.222656 54.128906 303.601562 C 43.242188 277.835938 38.917969 249.707031 37.28125 221.941406 C 35.46875 191.234375 34.195312 160.144531 43.792969 130.496094 C 57.546875 88 85.777344 55.246094 121.925781 30.171875" fill="#a0e0f4"/></g><g id="change1_2"><path d="M 342.039062 326.1875 C 342.816406 298 352.589844 271.226562 358.835938 244.003906 C 365.425781 215.265625 365.300781 187.207031 358.558594 158.464844 C 346.730469 108.027344 316.105469 59.03125 263.125 44.980469 C 239.140625 38.617188 213.273438 38.308594 188.800781 41.703125 C 182.464844 42.582031 176.054688 43.664062 169.6875 44.976562 C 178.378906 47.386719 189.421875 47.597656 194.503906 47.597656 C 224.402344 47.597656 313.632812 55.769531 322.230469 159.625 C 326.664062 213.1875 320.625 252.546875 313.175781 289.445312 C 312.292969 293.816406 310.484375 302.480469 310.484375 302.480469 L 319.722656 465.8125 C 319.722656 465.8125 329.285156 465.230469 333.933594 461.921875 C 340.257812 456.761719 347.132812 451.0625 351.132812 438.820312 C 353.339844 432.707031 355.039062 426.382812 356.253906 419.890625 C 359.015625 405.132812 361.136719 386.980469 357.5 372.1875 C 353.769531 357 341.597656 342.183594 342.039062 326.1875" fill="#a0e0f4"/></g><g id="change2_1"><path d="M 93.371094 294.574219 C 87.210938 295.726562 81.429688 297.914062 76.085938 300.992188 C 77.28125 303.855469 78.304688 314.359375 86.480469 327.222656 C 95.597656 341.5625 112.152344 359.25 117.746094 380.933594 C 121.792969 396.617188 121.71875 415.660156 118.832031 431.753906 C 111.976562 469.941406 71.402344 475.003906 70.480469 474.894531 C 87.824219 493.5 109.859375 503.152344 131.636719 499.078125 C 172.019531 491.519531 196.195312 439.613281 185.632812 383.144531 C 175.0625 326.671875 133.757812 287.015625 93.371094 294.574219" fill="#ee4780"/></g><g id="change2_2"><path d="M 310.484375 302.480469 C 308.90625 301.417969 307.285156 300.441406 305.625 299.550781 C 300.371094 296.726562 294.726562 294.757812 288.742188 293.785156 C 248.777344 287.28125 209.011719 327.308594 199.921875 383.1875 C 190.828125 439.066406 215.851562 489.636719 255.816406 496.140625 C 276.585938 499.519531 297.296875 490.328125 313.683594 472.878906 C 315.769531 470.652344 317.789062 468.292969 319.726562 465.8125 C 331.84375 450.289062 340.871094 429.875 344.636719 406.738281 C 351.933594 361.875 337.242188 320.441406 310.484375 302.480469" fill="#ee4780"/></g><g clip-path="url(#a)" id="change3_4"><path d="M 365.746094 360.351562 C 364.828125 357.605469 363.851562 354.929688 362.886719 352.285156 C 359.394531 342.734375 356.097656 333.707031 356.511719 323.226562 C 357.035156 310.027344 360.851562 293.8125 365.269531 275.039062 C 373.289062 240.96875 383.269531 198.5625 375.210938 158.882812 C 363.601562 101.699219 339.261719 59.328125 302.867188 32.949219 C 272.703125 11.085938 234.023438 0 187.894531 0 C 153.027344 0 121.976562 6.867188 95.601562 20.410156 C 45.960938 45.898438 14.53125 93.890625 2.1875 163.046875 C -4.886719 202.65625 6.667969 244.671875 15.949219 278.429688 C 21.167969 297.40625 25.671875 313.796875 26.519531 327.125 C 27.277344 339.085938 23.796875 349.773438 20.109375 361.089844 C 16.464844 372.285156 12.695312 383.867188 13.429688 396.707031 C 15.148438 426.539062 30.585938 463.050781 60.425781 472.71875 C 63.585938 473.742188 67.0625 474.484375 70.476562 474.890625 C 72.441406 475.128906 74.382812 475.253906 76.234375 475.253906 C 78.300781 475.253906 80.238281 475.101562 82.003906 474.800781 C 111.945312 469.722656 130.585938 431.875 123.558594 390.429688 C 120.363281 371.578125 112.253906 354.410156 100.769531 342.128906 C 90.902344 330.585938 82.667969 316.800781 76.085938 300.992188 C 60.722656 264.082031 54.425781 216.0625 57.78125 159.246094 C 63.933594 54.890625 167.644531 49.609375 188.371094 49.609375 C 217.0625 49.609375 311.3125 57.324219 319.515625 156.410156 C 324.363281 214.972656 319.695312 262.859375 305.621094 299.550781 C 307.28125 300.441406 308.902344 301.417969 310.484375 302.480469 C 325.132812 264.882812 330.054688 215.835938 325.097656 155.921875 C 316.503906 52.066406 218.273438 43.996094 188.371094 43.996094 C 183.289062 43.996094 176.910156 44.226562 169.6875 44.976562 C 150.5 46.964844 125.335938 52.632812 102.527344 67.476562 C 71.511719 87.664062 54.578125 118.425781 52.1875 158.90625 C 47.3125 241.535156 62.640625 306.148438 96.480469 345.726562 L 96.640625 345.90625 C 107.421875 357.441406 115.019531 373.582031 118.035156 391.363281 C 124.546875 429.765625 107.964844 464.714844 81.066406 469.28125 C 75.867188 470.160156 68.320312 469.382812 62.152344 467.390625 C 60.875 466.976562 59.628906 466.484375 58.40625 465.953125 C 34.574219 455.628906 20.601562 423.851562 19.023438 396.386719 C 18.347656 384.597656 21.789062 374.019531 25.4375 362.824219 C 29.121094 351.503906 32.933594 339.800781 32.109375 326.773438 C 31.226562 312.867188 26.648438 296.222656 21.351562 276.945312 C 11.742188 242.003906 0.851562 202.398438 7.703125 164.03125 C 19.722656 96.6875 50.160156 50.042969 98.160156 25.390625 C 121.796875 13.257812 149.382812 6.660156 180.242188 5.730469 C 182.773438 5.652344 185.320312 5.601562 187.898438 5.601562 C 287.746094 5.601562 348.921875 57.546875 369.722656 160 C 377.535156 198.476562 368.121094 238.46875 359.820312 273.753906 C 355.335938 292.8125 351.460938 309.269531 350.914062 323.003906 C 350.457031 334.589844 353.9375 344.121094 357.625 354.210938 C 358.574219 356.804688 359.53125 359.429688 360.433594 362.125 C 361.109375 364.15625 361.730469 366.230469 362.273438 368.292969 C 365.425781 380.242188 366.226562 392.535156 364.582031 403.839844 C 361.074219 427.96875 349.472656 448.105469 334.496094 458.773438 C 329.851562 462.082031 324.882812 464.488281 319.726562 465.808594 C 317.785156 468.289062 315.769531 470.648438 313.683594 472.875 C 340.757812 470.773438 364.703125 442.132812 370.125 404.851562 C 371.898438 392.636719 371.082031 379.714844 367.691406 366.863281 C 367.113281 364.683594 366.460938 362.492188 365.746094 360.351562" fill="#3853a1"/></g><g id="change3_1"><path d="M 280.109375 395.347656 C 284.554688 372.703125 276.46875 351.453125 262.042969 347.882812 C 247.621094 344.308594 232.324219 359.773438 227.878906 382.417969 C 223.429688 405.0625 231.519531 426.316406 245.941406 429.886719 C 260.363281 433.457031 275.660156 417.996094 280.109375 395.347656" fill="#3853a1"/></g><g id="change3_2"><path d="M 282.203125 299.574219 C 281.355469 298.992188 280.191406 299.203125 279.605469 300.054688 C 279.023438 300.90625 279.238281 302.066406 280.089844 302.652344 C 305.320312 319.984375 317.832031 358.902344 311.214844 399.496094 C 303.972656 444.023438 275.210938 479.179688 242.820312 483.097656 C 241.796875 483.21875 241.066406 484.148438 241.191406 485.175781 C 241.304688 486.121094 242.109375 486.816406 243.042969 486.816406 C 243.117188 486.816406 243.191406 486.816406 243.269531 486.804688 C 277.273438 482.695312 307.398438 446.226562 314.902344 400.097656 C 321.742188 358.105469 308.601562 317.710938 282.203125 299.574219" fill="#3853a1"/></g><g id="change3_3"><path d="M 95.105469 303.359375 C 94.117188 303.074219 93.082031 303.65625 92.800781 304.648438 C 92.523438 305.640625 93.097656 306.675781 94.089844 306.953125 C 123.554688 315.277344 147.886719 348.125 154.640625 388.695312 C 162.0625 433.191406 146.097656 475.71875 116.675781 489.816406 C 115.746094 490.261719 115.351562 491.375 115.796875 492.304688 C 116.117188 492.976562 116.785156 493.367188 117.484375 493.367188 C 117.753906 493.367188 118.027344 493.308594 118.289062 493.179688 C 149.179688 478.382812 166.015625 434.179688 158.324219 388.078125 C 151.335938 346.117188 125.929688 312.066406 95.105469 303.359375" fill="#3853a1"/></g><g id="change4_1"><path d="M 266.195312 357.855469 C 254.027344 357.226562 242.160156 370.554688 238.558594 388.855469 C 235.730469 403.28125 238.660156 417.683594 246.015625 425.539062 C 246.199219 425.738281 246.445312 425.835938 246.695312 425.835938 C 246.925781 425.835938 247.152344 425.753906 247.335938 425.585938 C 247.710938 425.234375 247.730469 424.640625 247.378906 424.265625 C 240.417969 416.832031 237.675781 403.070312 240.390625 389.214844 C 243.8125 371.820312 254.835938 359.144531 266.097656 359.71875 C 266.609375 359.765625 267.050781 359.351562 267.078125 358.835938 C 267.105469 358.320312 266.710938 357.882812 266.195312 357.855469" fill="#fbfefe"/></g></g></svg>